<?xml version="1.0" standalone="no"?><!DOCTYPE svg PUBLIC "-//W3C//DTD SVG 1.1//EN" "http://www.w3.org/Graphics/SVG/1.1/DTD/svg11.dtd"><svg class="icon" width="200px" height="200.00px" viewBox="0 0 1024 1024" version="1.1" xmlns="http://www.w3.org/2000/svg"><path d="M868.6 662.1c0 98.9-80.2 179.1-179.1 179.1-10.9 0-21.7-1-32-2.9-21-3.8-40.6-11.2-58.4-21.6-21.2-12.4-39.6-29.1-54.1-48.9 33.9-38.3 54.5-88.7 54.5-143.9 0-36-8.7-69.9-24.2-99.7 9-7.5 18.7-14.1 29.1-19.7 18.6-10.1 39.3-17 61.1-19.9 7.8-1.1 15.9-1.6 24-1.6 98.9 0 179.1 80.2 179.1 179.1z" fill="#C42222" /><path d="M868.6 662.1c0 98.9-80.2 179.1-179.1 179.1-10.9 0-21.7-1-32-2.9-21-3.8-40.6-11.2-58.4-21.6-2-1.2-3.9-2.4-5.9-3.6 1.7 0.4 3.4 0.7 5.1 1 10.4 1.9 21.1 2.9 32 2.9 98.9 0 179.1-80.2 179.1-179.1 0-63.5-33-119.2-82.8-151 81.2 17.1 142 89 142 175.2z" fill="#A31717" /><path d="M696.8 687c0 55.9-21.1 106.9-55.9 145.4-21-3.8-40.6-11.2-58.4-21.6-21.2-12.4-39.6-29.1-54.1-48.9 33.9-38.3 54.5-88.7 54.5-143.9 0-36-8.7-69.9-24.2-99.7 9-7.5 18.7-14.1 29.1-19.7 65.2 37.5 109 107.8 109 188.4z" fill="#A31717" /><path d="M689.5 873.1c-116.4 0-211.1-94.7-211.1-211.1s94.7-211 211.1-211 211.1 94.7 211.1 211.1-94.7 211-211.1 211z m0-358.1c-81.1 0-147.1 66-147.1 147.1s66 147.1 147.1 147.1 147.1-66 147.1-147.1S770.6 515 689.5 515z" fill="#331008" /><path d="M380.2 623.9m-217.2 0a217.2 217.2 0 1 0 434.4 0 217.2 217.2 0 1 0-434.4 0Z" fill="#EA2A2A" /><path d="M601.2 623.9c0 120-97.2 217.2-217.2 217.2-20.2 0-39.8-2.8-58.3-7.9 91.6-25.5 158.9-109.5 158.9-209.3s-67.3-183.8-158.9-209.3c18.6-5.2 38.1-7.9 58.3-7.9 119.9 0 217.2 97.3 217.2 217.2z" fill="#C42222" /><path d="M155.4 623.9c0 120 76.1 217.2 169.9 217.2 15.8 0 31.1-2.8 45.6-7.9-71.7-25.5-124.3-109.5-124.3-209.3s52.6-183.8 124.3-209.3c-14.5-5.2-29.8-7.9-45.6-7.9-93.9 0-169.9 97.3-169.9 217.2z" fill="#FF4343" /><path d="M380.2 873.1c-66.6 0-129.1-25.9-176.2-73-47.1-47.1-73-109.7-73-176.2 0-66.6 25.9-129.1 73-176.2 47.1-47.1 109.7-73 176.2-73s129.2 25.9 176.2 73c47.1 47.1 73 109.7 73 176.2s-25.9 129.1-73 176.2c-47.1 47.1-109.7 73-176.2 73z m0-434.4c-102.1 0-185.2 83.1-185.2 185.2s83.1 185.2 185.2 185.2S565.4 726 565.4 623.9s-83.1-185.2-185.2-185.2z" fill="#331008" /><path d="M646.3 328.3s-94.9 41.6-175.4 7.2-115.8-131.8-115.8-131.8 94.9-41.6 175.4-7.2 115.8 131.8 115.8 131.8z" fill="#3D8C2D" /><path d="M542.5 381.1c-27.1 0-56.2-4.2-84.1-16.2-92.1-39.4-131.7-145.8-133.4-150.3-5.8-15.9 1.8-33.5 17.2-40.2 4.4-1.9 108.7-46.7 200.8-7.3 92.1 39.4 131.7 145.8 133.3 150.3 5.8 15.9-1.8 33.5-17.2 40.2-3 1.4-54.5 23.5-116.6 23.5zM399.7 222.8c15.4 27.3 43.1 65.9 83.9 83.3 34.2 14.7 73 12 99.6 7.2 6.7-1.2 13-2.6 18.7-4.1-15.4-27.3-43.1-65.9-83.9-83.4-40.9-17.3-88-10.8-118.3-3z" fill="#331008" /><path d="M578.7 560.4c-1 0-2 0-3-0.1-17.6-1.6-30.6-17.2-28.9-34.8 4.3-47.1 16.8-91.6 37-132.1 16.2-32.5 37.4-62.5 62.9-89.2 43.7-45.6 85.6-66.1 87.4-67l27.8 57.6 0.1-0.1c-0.3 0.2-35 17.4-70.8 55.5-47.1 50-74.3 111-80.7 181.1-1.5 16.6-15.4 29.1-31.8 29.1z" fill="#331008" /><path d="M708.8 192.3l108.8 112" fill="#FFFFFF" /><path d="M817.6 336.3c-8.3 0-16.7-3.2-23-9.7l-108.8-112c-12.3-12.7-12-32.9 0.7-45.2 12.7-12.3 32.9-12 45.2 0.7l108.8 112c12.3 12.7 12 32.9-0.7 45.2-6.1 6-14.2 9-22.2 9z" fill="#331008" /></svg>