<?xml version="1.0" standalone="no"?><!DOCTYPE svg PUBLIC "-//W3C//DTD SVG 1.1//EN" "http://www.w3.org/Graphics/SVG/1.1/DTD/svg11.dtd"><svg class="icon" width="200px" height="200.00px" viewBox="0 0 1024 1024" version="1.1" xmlns="http://www.w3.org/2000/svg"><path d="M854.9 337c0 35.5-21.8 68.6-59.1 96.1-14.5 10.7-23.1 26.9-23.1 44.1v318.7c0 22.3-19.6 40.4-43.7 40.4H275.8c-24.2 0-43.7-18.1-43.7-40.4V477.2c0-17.2-8.5-33.4-23.1-44.1-37.4-27.5-59.1-60.6-59.1-96.1 0-84.7 123.7-155.3 287.2-170.3 21.2-2 43-3 65.4-3 194.6 0 352.4 77.6 352.4 173.3z" fill="#F97C28" /><path d="M792.2 481.6H579.8V328.4h294.3z" fill="#ED5D1D" /><path d="M806 255.9H662l-163.7-86.8 197.1 14.4z" fill="#FFA73E" /><path d="M751.3 860.3H579.8v-77.4h199.4z" fill="#ED5D1D" /><path d="M729 868.2H275.8c-41.8 0-75.7-32.5-75.7-72.4V477.2c0-6.9-3.7-13.6-10-18.3-47.2-34.8-72.2-76.9-72.2-121.9 0-27.8 9.5-54.6 28.3-79.5 16.6-22 40.1-42 69.8-59.4 56.4-33.1 133.8-55.5 218.1-63.3 22.4-2.1 45.4-3.1 68.3-3.1 99 0 192.5 19.2 263.4 54 78.1 38.4 121.1 92.1 121.1 151.3 0 45-25 87.1-72.2 121.9-6.4 4.7-10 11.4-10 18.3v318.7c0 39.9-33.9 72.3-75.7 72.3zM502.4 195.7c-21 0-42 1-62.4 2.8-75.1 6.9-143.2 26.4-191.6 54.8-57.8 33.9-66.5 67-66.5 83.7 0 30.1 25.1 54.9 46.1 70.3 22.9 16.9 36.1 42.3 36.1 69.8v318.7c0 4 4.8 8.4 11.7 8.4H729c6.9 0 11.7-4.4 11.7-8.4V477.2c0-27.5 13.2-52.9 36.1-69.8 21-15.5 46.1-40.3 46.1-70.3 0-33-31.1-67.2-85.4-93.8-62.2-30.8-145.7-47.6-235.1-47.6z" fill="#331008" /><path d="M724.2 337c0 35.5-21.8 68.6-59.1 96.1-14.6 10.7-23.1 26.9-23.1 44.1v318.7c0 22.3-19.6 40.4-43.7 40.4H275.8c-24.2 0-43.7-18.1-43.7-40.4V477.2c0-17.2-8.5-33.4-23.1-44.1-37.4-27.5-59.1-60.6-59.1-96.1 0-84.7 123.7-155.3 287.2-170.3 163.4 15 287.1 85.5 287.1 170.3z" fill="#FFCF48" /><path d="M341.8 836.2h-59c-24.2 0-43.7-18.1-43.7-40.4V477.2c0-17.2-8.5-33.4-23.1-44.1-37.4-27.5-59.1-60.6-59.1-96.1 0-84.7 123.7-155.3 287.2-170.3 10 0.9 19.8 2 29.5 3.4C325 190.5 216 257.5 216 337.1c0 35.5 21.8 68.6 59.1 96.1 14.5 10.7 23.1 26.9 23.1 44.1V796c-0.1 22.1 19.5 40.2 43.6 40.2z" fill="#FFE49F" /><path d="M598.2 868.2H275.8c-41.8 0-75.7-32.5-75.7-72.4V477.2c0-6.9-3.7-13.6-10-18.3-47.2-34.8-72.2-76.9-72.2-121.9 0-27.8 9.5-54.6 28.3-79.5 16.6-22 40.1-42 69.8-59.4 56.4-33.1 133.8-55.5 218.1-63.3 2-0.2 3.9-0.2 5.9 0 84.3 7.8 161.8 30.3 218.1 63.3 29.7 17.4 53.2 37.4 69.8 59.4 18.8 24.9 28.3 51.7 28.3 79.5 0 45-25 87.1-72.2 121.9-6.4 4.7-10 11.4-10 18.3v318.7c0 39.9-34 72.3-75.8 72.3zM437 198.8c-74 7.2-140.9 26.5-188.7 54.5-57.8 33.9-66.5 67-66.5 83.7 0 30.1 25.1 54.9 46.1 70.3 22.9 16.9 36.1 42.3 36.1 69.8v318.7c0 4 4.8 8.4 11.7 8.4h322.4c6.9 0 11.7-4.4 11.7-8.4V477.2c0-27.5 13.2-52.9 36.1-69.8 21-15.5 46.1-40.3 46.1-70.3 0-38.9-41.6-69.1-66.5-83.7-47.6-28.1-114.5-47.5-188.5-54.6z" fill="#331008" /></svg>