<?xml version="1.0" standalone="no"?><!DOCTYPE svg PUBLIC "-//W3C//DTD SVG 1.1//EN" "http://www.w3.org/Graphics/SVG/1.1/DTD/svg11.dtd"><svg class="icon" width="200px" height="200.00px" viewBox="0 0 1024 1024" version="1.1" xmlns="http://www.w3.org/2000/svg"><path d="M 512 93.9 c -115.5 0 -214 40.8 -295.7 122.4 C 134.7 298 93.9 396.5 93.9 512 s 40.8 214.1 122.4 295.7 C 298 889.3 396.5 930 512 930 c 115.4 0 214 -40.8 295.7 -122.4 C 889.3 726 930.1 627.5 930.1 512 c 0 -115.4 -40.8 -214 -122.4 -295.6 C 726 134.8 627.4 93.9 512 93.9 Z M 238.3 785.7 c -3.3 -3.3 -6.6 -6.7 -9.8 -10.1 C 159.5 702 125 614.2 125 512 c 0 -106.8 37.7 -198.1 113.3 -273.6 S 405.2 124.9 512 124.9 c 106.9 0 198.1 37.9 273.7 113.4 c 8.6 8.6 16.8 17.5 24.5 26.6 C 869.4 335 899 417.4 899 512 c 0 34.5 -3.9 67.3 -11.7 98.4 c -2.9 11.6 -6.4 22.9 -10.4 34 c -18.6 52 -49 99.1 -91.2 141.3 C 710.1 861.3 618.9 899 512 899 c -106.8 0 -198.1 -37.7 -273.7 -113.3 Z" fill="#626161" /><path d="M 228.5 775.5 c 3.2 3.4 6.5 6.8 9.8 10.1 C 313.9 861.3 405.2 899 512 899 c 106.9 0 198.1 -37.8 273.7 -113.4 c 42.2 -42.2 72.6 -89.3 91.2 -141.3 c -1.8 1.9 -4.1 2.8 -6.9 2.8 s -5.3 -1.1 -7.5 -3.2 c -1.8 -2.1 -2.8 -4.5 -2.8 -7.2 c 0 -2.8 1 -5.3 2.8 -7.5 l 16.2 -16 c 2.1 -2 4.6 -3 7.5 -3 c 0.3 0 0.7 0 1.1 0.1 c 7.8 -31.1 11.7 -63.9 11.7 -98.4 c 0 -94.6 -29.6 -176.9 -88.8 -247 c -3.2 -3.4 -6.4 -6.7 -9.8 -10.1 c -75.6 -75.5 -166.9 -113.4 -273.7 -113.4 c -106.9 0 -198 37.9 -273.6 113.4 c -75.6 75.6 -113.4 166.9 -113.4 273.7 c 0 94.7 29.5 177 88.8 247 Z m 279.6 -614.4 v 7.2 c 1.2 -0.5 2.7 -0.9 4.2 -0.9 c 2.9 0 5.4 1 7.5 3 c 2 2 2.9 4.5 2.9 7.4 v 11.8 c 0 2.9 -0.9 5.3 -2.9 7.2 c -2.1 2.1 -4.6 3.2 -7.5 3.2 c -2.8 0 -5.3 -1.1 -7.1 -3.2 c -2.2 -1.9 -3.2 -4.3 -3.2 -7.2 v -7.1 c -1.3 0.6 -2.7 0.9 -4.2 0.9 c -2.9 0 -5.3 -1 -7.3 -3 c -2.1 -2.1 -3.1 -4.5 -3.1 -7.4 v -11.9 c 0 -2.8 1 -5.2 3.1 -7.2 c 2 -2.1 4.4 -3.1 7.3 -3.1 c 2.8 0 5.2 1 7.3 3.1 c 2 2 3 4.4 3 7.2 Z m -53.6 78 c 0.8 2.7 0.5 5.3 -0.9 7.8 c -1.6 2.5 -3.6 4.1 -6.3 4.9 c -2.8 0.7 -5.5 0.4 -8 -1.2 l -15 -8.6 c -2.5 -1.4 -4 -3.4 -4.6 -6.1 c -0.5 -1.6 -0.5 -3.2 -0.3 -4.8 l -9.7 -5.6 c -2.5 -1.4 -4.1 -3.5 -4.9 -6.2 c -0.7 -2.8 -0.3 -5.4 1.1 -7.9 s 3.6 -4.1 6.3 -4.8 c 2.8 -0.7 5.3 -0.4 7.9 1 l 15 8.7 c 2.4 1.4 4.1 3.6 4.8 6.3 c 0.4 1.6 0.5 3.2 0.2 4.7 l 9.8 5.5 c 2.3 1.6 3.9 3.6 4.6 6.3 Z m -130.3 -13.5 c 0 0.2 0.1 0.3 0.1 0.4 c 2.5 -0.6 5 -0.2 7.3 1 c 2.5 1.6 4.2 3.7 4.9 6.4 l 2.3 8.9 c 0.7 2.6 0.5 5.2 -0.8 7.7 c -0.4 0.6 -0.7 1.1 -1.2 1.6 c 12.5 -0.5 26.7 1.5 43 6 c 62.4 17.1 132 12.4 208.7 -14 c 43.4 -15 75.7 -15.5 96.9 -1.5 c 8.3 4.8 15 11.5 20 20.3 c 17.1 12.7 26.1 35.6 27.1 68.5 c 0 -0.2 0 -0.4 0.1 -0.5 l 3.5 -13.1 c 0.8 -2.8 2.3 -4.9 4.8 -6.4 c 2.5 -1.4 5.1 -1.8 7.9 -1 c 2.7 0.7 4.8 2.4 6.2 4.9 c 1.5 2.4 1.9 5.1 1.1 7.8 l -1.4 5.4 c 0.2 -0.2 0.5 -0.4 0.8 -0.6 c 2.5 -1.3 5.2 -1.5 8 -0.8 c 2.8 0.5 4.8 2.1 6.1 4.6 c 1.6 2.5 1.9 5.2 1.2 8.1 l -3.5 12.9 c -0.8 2.9 -2.4 5 -4.9 6.3 c -2.5 1.6 -5 1.9 -7.7 1.2 c -2.8 -0.8 -4.8 -2.4 -6.4 -4.9 c -1.4 -2.5 -1.7 -5.1 -1.1 -7.8 l 1.6 -5.6 c -0.4 0.2 -0.7 0.4 -1 0.6 c -2.5 1.4 -5.1 1.8 -7.9 1 c -2.7 -0.7 -4.9 -2.4 -6.3 -4.8 c -0.4 -0.8 -0.8 -1.7 -1.1 -2.5 v 6.2 c -1.7 66 15.8 121.6 52.5 166.7 c 1.8 2.1 3.5 4.2 5.4 6.2 c 1.5 1.9 3.2 3.7 4.9 5.5 c 25.5 27.2 36.6 51.7 33.6 73.3 c -2 22.5 -18.5 41.5 -49.5 57 c -9.6 4.9 -18.7 10.3 -27.2 16.1 c 0.7 0.2 1.3 0.5 2.1 0.9 l 17.7 10.2 c 2.4 1.5 4 3.6 4.8 6.3 c 0.5 1.7 0.6 3.2 0.2 4.8 l 9.6 5.5 c 2.5 1.6 4.2 3.6 4.9 6.3 c 0.8 2.7 0.4 5.3 -1.1 7.8 c -1.4 2.5 -3.5 4.1 -6.1 4.9 c -2.9 0.7 -5.6 0.4 -8 -0.9 L 758.7 702 c -2.5 -1.3 -4.2 -3.4 -4.9 -6.3 c -0.4 -1.5 -0.5 -3.1 -0.3 -4.6 l -9.6 -5.6 c -2.5 -1.5 -4.1 -3.6 -4.9 -6.3 c -0.2 -1 -0.3 -1.8 -0.3 -2.7 c -29.6 23.7 -50.7 53.7 -63.2 90 c -8.2 24.4 -22.1 38.1 -41.7 41.2 c -17.6 3.7 -40.1 -2.6 -67.4 -18.7 c -38.9 -23 -73.6 -25 -103.9 -6 c -25.8 16.6 -46.8 21.4 -63 14.3 c -9.5 -3.2 -17.2 -10.2 -23.2 -20.9 c -12.3 -8.3 -20.8 -24.5 -25.6 -48.7 c -3.7 -18.5 -10.5 -34.7 -20.5 -48.5 c -13.6 -12.7 -30.8 -22.7 -51.5 -30.1 c -23.5 -8.4 -39.2 -19.6 -47.4 -33.7 c -10.7 -8.5 -17.5 -18.5 -20.1 -30 c -5.7 -19.7 1 -43.8 20.5 -72.2 c 33 -48.7 47.8 -105.5 44.1 -170.5 c -2.1 -38.2 5.8 -64.2 23.7 -77.9 c 6.4 -5.6 14.3 -9.5 23.5 -11.5 c -2 -1.4 -3.4 -3.4 -4 -6 l -2.3 -8.5 c -0.1 -0.2 -0.1 -0.4 -0.2 -0.5 c -2.6 0.6 -5.1 0.2 -7.5 -1.1 c -2.5 -1.4 -4 -3.5 -4.8 -6.3 l -2.4 -8.8 c -0.7 -2.8 -0.3 -5.3 1.1 -7.8 s 3.5 -4.1 6.3 -4.9 c 2.7 -0.7 5.3 -0.4 7.8 1 c 2.5 1.5 4.1 3.6 4.8 6.4 l 2.4 8.8 Z m 254.3 8.8 l -10.9 10.9 c -2.2 2.1 -4.7 3.2 -7.5 3.2 s -5.2 -1.1 -7.2 -3.2 c -2.1 -1.9 -3.1 -4.3 -3.1 -7.1 c 0 -2.9 1 -5.3 3.1 -7.3 l 11 -11.1 c 2 -2.2 4.5 -3.3 7.5 -3.3 c 2.8 0 5.2 1.1 7.1 3.3 c 2.2 1.9 3.2 4.2 3.2 7.1 c 0 3 -1 5.5 -3.2 7.5 Z m -29.2 -31.1 c 2 -2.1 4.4 -3.1 7.2 -3.1 c 2.9 0 5.4 1 7.4 3.1 c 2 2 3 4.4 3 7.2 c 0 2.9 -1 5.4 -3 7.4 L 552.8 229 c -2 2 -4.5 3 -7.4 3 c -2.8 0 -5.2 -1 -7.2 -3 c -2.1 -2.1 -3.1 -4.5 -3.1 -7.4 c 0 -2.8 1 -5.2 3.1 -7.2 l 11.1 -11.1 Z M 175 366.3 l 13.4 -13.4 c 2.1 -2.1 4.5 -3.1 7.3 -3.1 c 2.9 0 5.3 1 7.4 3.1 c 2 2 3.1 4.4 3.1 7.2 c 0 2.9 -1 5.3 -3.1 7.3 l -13.4 13.5 c -2 2 -4.5 3 -7.3 3 s -5.3 -1 -7.3 -3 c -2.1 -2 -3.1 -4.5 -3.1 -7.3 s 1 -5.3 3 -7.3 Z m 11.6 23.8 c 0 -2.8 1 -5.3 3.1 -7.5 l 13.3 -13.2 c 2.1 -2.1 4.6 -3.2 7.5 -3.2 c 2.8 0 5.2 1.1 7.2 3.2 c 2 1.9 3.1 4.3 3.1 7.2 c 0 2.8 -1.1 5.3 -3.1 7.4 l -13.3 13.3 c -2.1 2.1 -4.6 3.1 -7.5 3.1 c -2.7 0 -5.1 -1 -7.2 -3.1 c -2.1 -1.9 -3.1 -4.3 -3.1 -7.2 Z m -20.5 128.2 c 1.4 2.5 1.7 5.1 1.1 7.8 l -1.6 5.8 c 0.4 -0.3 0.7 -0.5 1.1 -0.7 c 2.5 -1.6 5.1 -1.9 7.8 -1.2 c 2.7 0.8 4.7 2.5 6.3 5 c 1.4 2.5 1.6 5 0.9 7.8 l -4.4 16.9 c -0.7 2.7 -2.3 4.8 -4.8 6.3 c -2.5 1.4 -5.3 1.6 -8.1 0.9 c -2.7 -0.8 -4.7 -2.3 -6.1 -4.6 c -1.5 -2.7 -1.8 -5.4 -1.1 -8 l 1.5 -5.5 c -0.3 0.2 -0.6 0.3 -1 0.5 c -2.5 1.5 -5 1.8 -7.8 1.1 c -2.7 -0.8 -4.8 -2.4 -6.3 -4.8 c -1.4 -2.6 -1.7 -5.1 -1 -7.9 l 4.6 -16.9 c 0.7 -2.8 2.3 -4.8 4.8 -6.3 s 5.1 -1.8 7.8 -1 c 2.8 0.7 4.9 2.3 6.3 4.8 Z m 45.6 148.2 c 2.8 -0.7 5.4 -0.4 7.9 1 l 14.2 8.3 c 2.4 1.3 4 3.5 4.8 6.2 c 0.5 1.6 0.5 3.1 0.2 4.7 l 9.7 5.7 c 2.4 1.4 4.1 3.4 4.8 6.3 c 0.8 2.7 0.4 5.3 -1.1 7.8 c -1.4 2.5 -3.5 4.1 -6.4 4.8 c -2.6 0.8 -5.2 0.5 -7.7 -1.1 L 224 702 c -2.5 -1.5 -4.2 -3.6 -4.9 -6.3 c -0.4 -1.5 -0.5 -3.1 -0.1 -4.7 l -9.8 -5.6 c -2.4 -1.4 -4 -3.5 -4.8 -6.3 c -0.7 -2.7 -0.4 -5.4 1.1 -7.8 c 1.4 -2.5 3.5 -4 6.2 -4.8 Z m 86.7 99 c 2.1 -2 4.5 -3 7.4 -3 c 2.8 0 5.2 1 7.2 3 c 2 2.1 3 4.5 3 7.4 c 0 2.8 -1 5.3 -3 7.3 l -20.3 20.4 c -2.1 2 -4.5 3 -7.4 3 c -2.8 0 -5.3 -1 -7.3 -3.1 c -2 -2 -3 -4.5 -3 -7.3 s 1 -5.3 3 -7.3 l 20.4 -20.4 Z m 14.5 16.5 c 2.1 -1.9 4.6 -2.8 7.5 -2.8 s 5.3 0.9 7.1 2.8 c 2.2 2.2 3.3 4.7 3.3 7.5 c 0 2.9 -1.1 5.3 -3.3 7.2 l -20 20.5 c -2.2 2.1 -4.7 3.2 -7.5 3.2 c -2.9 0 -5.3 -1.1 -7.2 -3.2 c -2.1 -2.2 -3.2 -4.6 -3.2 -7.2 c 0 -2.9 1.1 -5.4 3.2 -7.5 l 20.1 -20.5 Z m 366.4 -586.1 c 2.7 -0.7 5.4 -0.4 7.9 1.1 l 18.3 10.5 c 2.4 1.4 4 3.5 4.8 6.3 c 0.5 1.6 0.6 3.2 0.2 4.7 l 9.6 5.5 c 2.5 1.6 4.2 3.7 4.9 6.4 c 0.8 2.6 0.4 5.3 -1.1 7.8 c -1.4 2.5 -3.4 4.1 -6.1 4.8 c -2.9 0.8 -5.5 0.5 -8 -0.8 l -18.2 -10.7 c -2.4 -1.3 -4.1 -3.5 -4.8 -6.3 c -0.5 -1.6 -0.6 -3.2 -0.3 -4.7 l -9.7 -5.5 c -2.4 -1.5 -4 -3.6 -4.8 -6.3 c -0.7 -2.8 -0.5 -5.4 1 -7.9 c 1.4 -2.4 3.5 -4 6.3 -4.9 Z M 840.7 364 c 0 2.9 -1 5.3 -3 7.3 l -9.7 9.5 c -2 2 -4.5 3 -7.3 3 s -5.3 -1 -7.3 -3 c -2 -2.1 -3 -4.5 -3 -7.4 c 0 -2.9 1 -5.3 3.1 -7.3 l 9.5 -9.5 c 2.1 -2 4.6 -3 7.4 -3 c 2.9 0 5.3 1.1 7.3 3.1 c 2 2.2 3 4.6 3 7.3 Z m -15.5 26.1 c 0 -2.8 1 -5.3 3.1 -7.5 l 9.5 -9.5 c 2 -1.9 4.4 -2.8 7.2 -2.8 c 2.9 0 5.4 1 7.5 3.1 c 1.9 1.9 2.9 4.4 2.9 7.2 s -1.1 5.2 -3.2 7.2 l -9.5 9.5 c -2.1 2.1 -4.5 3.1 -7.2 3.1 c -2.8 0 -5.3 -1 -7.5 -3.1 c -1.9 -2 -2.8 -4.4 -2.8 -7.2 Z M 817.1 491 c -0.4 -1.6 -0.5 -3.1 -0.2 -4.7 l -9.7 -5.6 c -2.4 -1.4 -4 -3.6 -4.8 -6.3 c -0.7 -2.8 -0.4 -5.4 1 -7.9 c 1.5 -2.5 3.6 -4.1 6.4 -4.7 c 2.7 -0.8 5.3 -0.4 7.9 1 l 18.7 10.8 c 2.5 1.4 4 3.5 4.8 6.3 c 0.4 1.5 0.5 3.1 0.2 4.6 l 9.6 5.5 c 2.5 1.6 4.2 3.7 4.9 6.4 c 0.8 2.9 0.5 5.6 -1.1 8.1 c -1.5 2.5 -3.6 4 -6.4 4.5 c -2.6 0.8 -5.2 0.5 -7.7 -0.8 L 822 497.3 c -2.5 -1.4 -4.1 -3.5 -4.9 -6.3 Z M 700.7 783.3 l 16 4.3 c 2.7 0.8 4.8 2.4 6.2 4.9 c 1.5 2.5 1.8 5.1 1 7.8 c -0.1 0.7 -0.4 1.3 -0.6 1.9 l 8.1 2.1 c 2.6 0.8 4.7 2.4 6.3 4.9 c 1.3 2.5 1.6 5.1 0.8 7.8 c -0.7 2.6 -2.2 4.7 -4.6 6.3 c -2.6 1.3 -5.4 1.7 -8 0.9 l -15.9 -4.4 c -2.8 -0.7 -5 -2.2 -6.3 -4.6 c -1.5 -2.6 -1.9 -5.3 -1.2 -8 c 0.2 -0.6 0.4 -1.2 0.8 -1.7 l -8 -2.2 c -2.8 -0.7 -4.9 -2.3 -6.4 -4.8 c -1.4 -2.5 -1.7 -5.2 -1 -7.9 c 0.8 -2.7 2.4 -4.8 4.9 -6.3 c 2.5 -1.5 5.1 -1.8 7.9 -1 Z m 178 -172 l -16.1 16.2 c -2.1 2 -4.4 3 -7.3 3 c -2.9 0 -5.3 -1 -7.3 -3.1 c -2.1 -2.1 -3.1 -4.4 -3.1 -7.3 c 0 -2.8 1 -5.3 3.1 -7.3 l 16.1 -16.2 c 2.1 -2 4.5 -3 7.3 -3 c 2.9 0 5.3 1 7.4 3.1 c 2 2.1 3 4.5 3 7.3 s -1 5.3 -3.1 7.3 Z M 575.4 830.8 l 15 8.6 c 2.4 1.4 4 3.6 4.8 6.3 c 0.4 1.6 0.5 3.3 0.2 4.9 l 9.6 5.5 c 2.5 1.4 4.2 3.4 4.9 6 c 0.8 3 0.4 5.6 -1.1 8.1 c -1.4 2.5 -3.5 4.1 -6.4 4.9 c -2.6 0.7 -5.2 0.4 -7.7 -1.1 l -15 -8.7 c -2.5 -1.3 -4 -3.5 -4.7 -6.3 c -0.4 -1.5 -0.5 -3.1 -0.2 -4.6 l -9.8 -5.6 c -2.4 -1.5 -4 -3.6 -4.7 -6.3 c -0.8 -2.8 -0.4 -5.4 1 -7.9 c 1.4 -2.4 3.5 -4 6.2 -4.8 c 2.8 -0.8 5.4 -0.5 7.9 1 Z m -124.1 -1 c 2.7 0.8 4.7 2.3 6.2 4.8 l 6.6 11.4 c 0.6 0.1 1.2 0.2 1.9 0.3 c 2.7 0.8 4.7 2.4 6 4.9 l 13.5 23.4 c 1.4 2.5 1.8 5 1.2 7.7 c -0.7 2.7 -2.4 4.8 -4.9 6.3 c -2.5 1.4 -5 1.7 -7.8 1.2 c -2.8 -0.7 -4.9 -2.4 -6.2 -4.9 l -6.8 -11.5 c -0.5 -0.1 -1.1 -0.2 -1.7 -0.3 c -2.8 -0.8 -4.8 -2.4 -6.3 -4.9 L 439.5 845 c -1.3 -2.5 -1.7 -5.1 -1 -7.9 c 0.8 -2.7 2.3 -4.8 4.8 -6.3 s 5.2 -1.8 8 -1 Z" fill="#eb9fab" /><path d="M 508.1 168.3 v -7.2 c 0 -2.8 -1 -5.2 -3 -7.2 c -2.1 -2.1 -4.5 -3.1 -7.3 -3.1 c -2.9 0 -5.3 1 -7.3 3.1 c -2.1 2 -3.1 4.4 -3.1 7.2 V 173 c 0 2.9 1 5.3 3.1 7.4 c 2 2 4.4 3 7.3 3 c 1.5 0 2.9 -0.3 4.2 -0.9 c 1.1 -0.5 2.2 -1.2 3.1 -2.1 c 2 -2.1 3 -4.5 3 -7.4 v -4.7 Z m -68.2 54.3 c -0.7 -2.7 -2.4 -4.9 -4.8 -6.3 l -15 -8.7 c -2.6 -1.4 -5.1 -1.7 -7.9 -1 c -2.7 0.7 -4.9 2.3 -6.3 4.8 s -1.8 5.1 -1.1 7.9 c 0.8 2.7 2.4 4.8 4.9 6.2 l 9.7 5.6 l 5.3 3.1 c 2.5 1.4 5.1 1.7 7.9 1 c 2.7 -0.7 4.8 -2.3 6.2 -4.8 c 0.7 -1 1 -2.1 1.3 -3.1 c 0.3 -1.5 0.2 -3.2 -0.2 -4.7 Z m -115.6 3.3 c 0 -0.1 -0.1 -0.2 -0.1 -0.4 l -2.4 -8.7 c -0.7 -2.8 -2.3 -4.9 -4.8 -6.4 c -2.5 -1.4 -5.1 -1.7 -7.8 -1 c -2.8 0.8 -4.9 2.4 -6.3 4.9 s -1.8 5 -1.1 7.8 l 2.4 8.8 c 0.8 2.8 2.3 4.9 4.8 6.3 c 2.4 1.3 4.9 1.7 7.5 1.1 c 0.2 0 0.3 0 0.3 -0.1 c 2.8 -0.8 5 -2.4 6.4 -4.9 c 1.3 -2.2 1.7 -4.7 1.1 -7.4 Z m 55.5 31.6 c -16.3 -4.5 -30.5 -6.5 -43 -6 c -4.8 0.2 -9.5 0.8 -13.8 1.8 c -9.2 2 -17.1 5.9 -23.5 11.5 c -17.9 13.7 -25.8 39.7 -23.7 77.9 c 3.7 65 -11.1 121.8 -44.1 170.5 c -19.5 28.4 -26.2 52.5 -20.5 72.2 c 2.6 11.5 9.4 21.5 20.1 30 c 8.4 6.6 19.3 12.3 32.6 17.1 c 29.1 10.4 51.3 25.9 66.3 46.7 c 10 13.8 16.8 30 20.5 48.5 c 4.8 24.2 13.3 40.4 25.6 48.7 c 2.7 1.8 5.5 3.2 8.6 4.3 c 12.2 5.4 27.3 3.9 45.2 -4.3 c 5.7 -2.7 11.7 -6 17.9 -10 c 5 -3.2 10 -5.7 15.3 -7.7 c 26.4 -10.1 55.9 -5.6 88.5 13.7 c 27.2 16.1 49.7 22.3 67.4 18.7 c 5.2 -0.8 10.2 -2.4 14.6 -4.8 c 7.5 -4 13.7 -10.2 19 -18.5 c 3.1 -5.1 5.8 -11.1 8.1 -17.8 c 3.3 -9.5 7.1 -18.6 11.6 -27.1 c 19.4 -38 50.2 -67.6 92.3 -88.9 h -0.1 c 18.1 -9.1 31.2 -19.3 39.5 -30.8 c 5.8 -8.2 9.2 -16.9 10 -26.3 c 2.6 -18.6 -5.3 -39.3 -23.8 -62.2 c -1.9 -2 -3.6 -4.1 -5.4 -6.2 c -1.5 -1.6 -2.9 -3.3 -4.5 -5 c -43.7 -47 -64.6 -106.4 -62.7 -178.3 c 0.6 -26.9 -3.5 -47.9 -12.4 -62.9 c -5 -8.8 -11.7 -15.5 -20 -20.3 c -21.2 -14 -53.5 -13.5 -96.9 1.5 c -76.7 26.5 -146.3 31.1 -208.7 14 Z m -5.5 20 c 66.1 18.4 139.7 13.6 220.9 -14.4 c 35.6 -12.3 62 -13.4 79.3 -3.5 c 5.8 3.9 10.5 9.3 14 16.2 c 6.3 11.8 9.1 28.1 8.5 48.9 c -2 77.8 20.8 142.1 68.4 193 c 0.7 0.7 1.5 1.5 2.2 2.4 c 2.4 3.1 4.9 6.1 7.6 9 c 13.2 16.8 19.4 32.1 18.4 45.5 c -2.4 15.6 -15.2 29.3 -38.2 40.9 c -56.8 28.7 -94.8 71.3 -114 127.7 c -5.4 15.7 -14 24.8 -25.9 27.5 c -13.7 1.9 -31.5 -3.5 -53.2 -16.2 c -47 -27.8 -88.8 -29.6 -125.5 -5.6 c -18.5 11.8 -33.3 16.1 -44.4 12.5 c -0.1 0 -0.2 0 -0.2 -0.1 c -10.2 -4.9 -17.2 -17.5 -21.2 -37.6 c -4.3 -22.3 -12.5 -41.5 -24.7 -58 c -17.3 -23.3 -42.5 -41 -75.5 -52.7 c -9.2 -3.3 -17 -7.2 -23.1 -11.6 c -8.5 -6 -14 -13.2 -16.5 -21.2 c -2.3 -10.5 0 -22.8 6.8 -36.8 c 2.7 -5.9 6.3 -12.1 10.8 -18.6 c 4.9 -7.2 9.5 -14.6 13.7 -22.1 c 26 -47.2 37.3 -100.9 34 -161.2 c -1.2 -21.7 1.5 -38.5 7.9 -50.2 c 2.3 -4.1 4.9 -7.6 8.2 -10.5 c 2.7 -2 5.8 -3.7 9.2 -5 c 12.8 -4.9 30.3 -4.3 52.5 1.7 Z" fill="#626161" /><path d="M 388.8 294 c -27.8 -7.7 -48.3 -6.6 -61.5 3.4 c -12.5 11 -17.8 31.2 -16.1 60.8 c 3.8 69.8 -12.1 130.9 -47.8 183.3 c -14.9 21.9 -20.8 40.3 -17.6 55.2 c 0.5 1.7 1.2 3.2 1.9 4.7 c 6.1 4.4 13.9 8.3 23.1 11.6 c 33 11.7 58.2 29.4 75.5 52.7 c 20.4 19.5 33.5 44.5 39.4 74.7 c 1.6 8.2 3.8 15.2 6.5 20.9 c 0 0.1 0.1 0.1 0.2 0.1 c 11.1 3.6 25.9 -0.7 44.4 -12.5 c 36.7 -24 78.5 -22.2 125.5 5.6 c 21.7 12.7 39.5 18.1 53.2 16.2 c 11.9 -2.7 20.5 -11.8 25.9 -27.5 c 19.2 -56.4 57.2 -99 114 -127.7 c 23 -11.6 35.8 -25.3 38.2 -40.9 c 1 -13.4 -5.2 -28.7 -18.4 -45.5 c -2.7 -2.9 -5.2 -5.9 -7.6 -9 c -0.7 -0.9 -1.5 -1.7 -2.2 -2.4 c -47.6 -50.9 -70.4 -115.2 -68.4 -193 c 0.6 -20.8 -2.2 -37.1 -8.5 -48.9 c -17.4 -9.6 -43.6 -8.3 -78.6 3.8 c -81.1 28 -154.9 32.9 -221.1 14.4 Z m 240.5 100.8 h 0.1 c 5.3 5.2 10.1 10.7 14.5 16.4 h 0.3 c 32.2 32.4 48.3 71.6 48.3 117.4 c 0 45.9 -16.1 85 -48.3 117.4 h -0.3 c -32.3 32.3 -71.4 48.4 -117.2 48.4 c -45.9 0 -84.9 -16.1 -117.4 -48.4 c -5.6 -5.6 -10.8 -11.5 -15.5 -17.6 c -31.8 -32.2 -47.6 -71 -47.6 -116.4 c 0 -45.7 16.1 -84.9 48.5 -117.2 c 32.3 -32.4 71.5 -48.6 117.3 -48.6 s 84.9 16.2 117.3 48.6 Z" fill="#979fcf" /><path d="M 629.4 394.8 h -0.1 c -32.4 -32.4 -71.5 -48.6 -117.3 -48.6 s -85 16.2 -117.3 48.6 c -32.4 32.3 -48.5 71.5 -48.5 117.2 c 0 45.4 15.8 84.2 47.6 116.4 l 0.9 0.9 c 32.3 32.4 71.5 48.6 117.3 48.6 s 84.9 -16.2 117.3 -48.6 h 0.1 c 32.3 -32.3 48.5 -71.5 48.5 -117.3 c 0 -38.2 -11.4 -71.9 -34 -100.8 c -4.4 -5.7 -9.2 -11.2 -14.5 -16.4 Z m -22 21.8 v 0.1 c 26.2 26.3 39.4 58.1 39.4 95.2 c 0 37.3 -13.2 69 -39.4 95.4 c -26.4 26.3 -58.1 39.4 -95.4 39.4 c -37.2 0 -69 -13.1 -95.2 -39.4 h -0.1 c -26.4 -26.4 -39.5 -58.1 -39.5 -95.4 c 0 -37.2 13.1 -69 39.5 -95.3 c 26.3 -26.3 58.1 -39.4 95.3 -39.4 s 69 13.2 95.4 39.4 Z M 463.3 758.8 c -5.3 2 -10.3 4.5 -15.3 7.7 c -6.2 4 -12.2 7.3 -17.9 10 c 6.5 -2.4 13.7 -6 21.5 -11 c 3.9 -2.5 7.7 -4.8 11.7 -6.7 Z m 277.6 -447.9 c -2.5 1.5 -4 3.6 -4.8 6.4 l -3.5 13.1 c -0.1 0.1 -0.1 0.3 -0.1 0.5 c -0.3 1.6 -0.3 3.2 0 4.8 c 0.3 0.8 0.7 1.7 1.1 2.5 c 1.4 2.4 3.6 4.1 6.3 4.8 c 2.8 0.8 5.4 0.4 7.9 -1 c 0.3 -0.2 0.6 -0.4 1 -0.6 c 1.9 -1.5 3.1 -3.4 3.8 -5.7 l 2.1 -7.7 l 1.4 -5.4 c 0.8 -2.7 0.4 -5.4 -1.1 -7.8 c -1.4 -2.5 -3.5 -4.2 -6.2 -4.9 c -2.8 -0.9 -5.4 -0.4 -7.9 1 Z m 13.4 356.6 c -0.8 -0.4 -1.4 -0.7 -2.1 -0.9 c -1.9 -0.7 -3.8 -0.7 -5.8 -0.1 c -2.8 0.7 -4.9 2.4 -6.3 4.9 c -1 1.6 -1.5 3.3 -1.4 5.1 c 0 0.9 0.1 1.7 0.3 2.7 c 0.8 2.7 2.4 4.8 4.9 6.3 l 9.6 5.6 l 8.2 4.6 c 2.4 1.5 5.1 1.8 7.8 1 c 2.8 -0.7 4.9 -2.3 6.3 -4.8 c 0.6 -1 1 -2 1.2 -3.1 c 0.4 -1.6 0.3 -3.1 -0.2 -4.8 c -0.8 -2.7 -2.4 -4.8 -4.8 -6.3 l -17.7 -10.2 Z M 652.8 767.8 c -5.3 8.3 -11.5 14.5 -19 18.5 c 8 -2.8 14.2 -8.8 19 -18.5 Z m -96.3 -567.7 c -2.8 0 -5.2 1 -7.2 3.1 l -11.1 11.1 c -2.1 2 -3.1 4.4 -3.1 7.2 c 0 2.9 1 5.3 3.1 7.4 c 2 2 4.4 3 7.2 3 c 2.9 0 5.4 -1 7.4 -3 l 11.1 -11.1 c 2 -2 3 -4.5 3 -7.4 c 0 -2.8 -1 -5.2 -3 -7.2 c -2 -2.1 -4.5 -3.1 -7.4 -3.1 Z M 188.4 352.9 L 175 366.3 c -2 2 -3 4.5 -3 7.3 s 1 5.3 3.1 7.3 c 2 2 4.5 3 7.3 3 s 5.3 -1 7.3 -3 l 13.4 -13.5 c 2.1 -2 3.1 -4.4 3.1 -7.3 c 0 -2.8 -1.1 -5.2 -3.1 -7.2 c -2.1 -2.1 -4.5 -3.1 -7.4 -3.1 c -2.8 0 -5.2 1 -7.3 3.1 Z M 167.2 526 c 0.6 -2.7 0.3 -5.3 -1.1 -7.8 c -1.4 -2.5 -3.5 -4.1 -6.3 -4.8 c -2.7 -0.8 -5.3 -0.5 -7.8 1 s -4.1 3.5 -4.8 6.3 l -4.6 16.9 c -0.7 2.8 -0.4 5.3 1 7.9 c 1.5 2.4 3.6 4 6.3 4.8 c 2.8 0.7 5.3 0.4 7.8 -1.1 c 0.4 -0.2 0.7 -0.3 1 -0.5 c 2 -1.4 3.2 -3.3 3.9 -5.7 l 3 -11.2 l 1.6 -5.8 Z m 52.4 141.5 c -2.5 -1.4 -5.1 -1.7 -7.9 -1 c -2.7 0.8 -4.8 2.4 -6.2 4.9 c -1.5 2.4 -1.8 5.1 -1.1 7.8 c 0.8 2.8 2.4 4.9 4.8 6.3 l 9.8 5.6 l 4.5 2.6 c 2.4 1.4 5.1 1.8 7.8 1 c 2.8 -0.7 4.9 -2.4 6.3 -4.8 c 0.6 -1.1 1 -2.1 1.2 -3.2 c 0.3 -1.6 0.3 -3.1 -0.2 -4.7 c -0.8 -2.7 -2.4 -4.9 -4.8 -6.2 l -14.2 -8.3 Z m 86.2 95 c -2.9 0 -5.3 1 -7.4 3 L 278 786 c -2 2 -3 4.5 -3 7.3 s 1 5.3 3 7.3 c 2 2.1 4.5 3.1 7.3 3.1 c 2.9 0 5.3 -1 7.4 -3 l 20.3 -20.4 c 2 -2 3 -4.5 3 -7.3 c 0 -2.9 -1 -5.3 -3 -7.4 c -2 -2.1 -4.4 -3.1 -7.2 -3.1 Z m 381.4 -565.4 c -2.5 -1.5 -5.2 -1.8 -7.9 -1.1 c -2.8 0.8 -4.9 2.4 -6.3 4.9 c -1.5 2.5 -1.7 5.1 -1 7.9 c 0.8 2.7 2.4 4.8 4.8 6.3 l 9.7 5.5 l 8.7 5 c 2.4 1.4 5.1 1.7 7.8 0.9 c 2.8 -0.7 4.9 -2.3 6.3 -4.7 c 0.6 -1 1 -2.1 1.2 -3.2 c 0.4 -1.5 0.3 -3.1 -0.2 -4.7 c -0.8 -2.8 -2.4 -4.9 -4.8 -6.3 l -18.3 -10.5 Z m 150.5 174.3 c 2 -2 3 -4.4 3 -7.3 c 0 -2.8 -1 -5.2 -3 -7.3 c -2 -2 -4.4 -3.1 -7.3 -3.1 c -2.8 0 -5.3 1 -7.4 3 l -9.5 9.5 c -2.1 2 -3.1 4.4 -3.1 7.3 c 0 2.9 1 5.3 3 7.4 c 2 2 4.5 3 7.3 3 s 5.3 -1 7.3 -3 l 9.7 -9.5 Z m -20.8 114.9 l 9 5.2 c 2.5 1.5 5.2 1.8 8 1 c 2.7 -0.7 4.8 -2.3 6.2 -4.7 c 0.7 -1.1 1.1 -2.2 1.3 -3.3 c 0.3 -1.5 0.2 -3.1 -0.2 -4.6 c -0.8 -2.8 -2.3 -4.9 -4.8 -6.3 l -18.7 -10.8 c -2.6 -1.4 -5.2 -1.8 -7.9 -1 c -2.8 0.6 -4.9 2.2 -6.4 4.7 c -1.4 2.5 -1.7 5.1 -1 7.9 c 0.8 2.7 2.4 4.9 4.8 6.3 l 9.7 5.6 Z M 716.7 787.5 l -16 -4.3 c -2.8 -0.7 -5.4 -0.4 -7.9 1 c -2.5 1.5 -4.1 3.6 -4.9 6.3 c -0.7 2.7 -0.4 5.4 1 7.9 c 1.5 2.5 3.6 4.1 6.4 4.8 l 8 2.2 l 8 2.1 c 2.7 0.7 5.3 0.5 7.8 -1 c 1.9 -1.1 3.3 -2.5 4.2 -4.4 c 0.2 -0.6 0.5 -1.2 0.6 -1.9 c 0.8 -2.7 0.5 -5.3 -1 -7.8 c -1.4 -2.4 -3.5 -4.1 -6.2 -4.9 Z m 145.9 -160 l 16.1 -16.2 c 2.1 -2 3.1 -4.4 3.1 -7.3 c 0 -2.8 -1 -5.2 -3 -7.3 c -2.1 -2.1 -4.5 -3.1 -7.4 -3.1 c -2.8 0 -5.2 1 -7.3 3 L 848 612.8 c -2.1 2 -3.1 4.5 -3.1 7.3 c 0 2.9 1 5.2 3.1 7.3 c 2 2.1 4.4 3.1 7.3 3.1 c 2.9 0 5.2 -1 7.3 -3 Z M 590.4 839.3 l -15 -8.6 c -2.5 -1.4 -5.1 -1.7 -7.9 -1 c -2.7 0.8 -4.8 2.4 -6.2 4.8 c -1.4 2.5 -1.8 5.1 -1 7.9 c 0.7 2.7 2.3 4.8 4.7 6.3 l 9.8 5.6 l 5.2 3 c 2.4 1.4 5.1 1.7 7.9 1 c 2.7 -0.8 4.8 -2.4 6.3 -4.8 c 0.5 -1 0.9 -2 1.2 -3 c 0.3 -1.6 0.2 -3.3 -0.2 -4.9 c -0.8 -2.6 -2.4 -4.8 -4.8 -6.3 Z m -132.9 -4.8 c -1.5 -2.5 -3.5 -4 -6.2 -4.8 c -2.8 -0.7 -5.5 -0.4 -8 1 c -2.5 1.5 -4 3.6 -4.8 6.3 c -0.7 2.8 -0.3 5.4 1 7.9 l 13.5 23.2 c 1.5 2.5 3.5 4.1 6.3 4.9 c 0.6 0.1 1.2 0.2 1.7 0.3 c 2.2 0.2 4.2 -0.3 6.2 -1.4 c 2.4 -1.4 4 -3.5 4.8 -6.3 c 0.7 -2.7 0.3 -5.4 -1.1 -7.9 l -6.8 -11.8 l -6.6 -11.4 Z" fill="#626161" /></svg>