<?xml version="1.0" standalone="no"?><!DOCTYPE svg PUBLIC "-//W3C//DTD SVG 1.1//EN" "http://www.w3.org/Graphics/SVG/1.1/DTD/svg11.dtd"><svg class="icon" width="200px" height="200.00px" viewBox="0 0 1024 1024" version="1.1" xmlns="http://www.w3.org/2000/svg"><path fill="#333333" d="M1004 965.6H20c-8.8 0-16-7.2-16-16V759.2c0-8.8 7.2-16 16-16h984c8.8 0 16 7.2 16 16v190.4c0 8.8-7.2 16-16 16z m-968-32h952V775.2H36v158.4zM1004 575.2H20c-8.8 0-16-7.2-16-16V364c0-8.8 7.2-16 16-16h11.2l821.6-288c5.6-1.6 12-0.8 16 3.2 96.8 88.8 148.8 192 151.2 298.4v197.6c0 8.8-7.2 16-16 16z m-968-32h952V365.6v-1.6c-1.6-95.2-48-188.8-133.6-271.2L39.2 378.4c-0.8 0-2.4 0.8-3.2 0.8v164zM812 692.8c-8 0-16-1.6-24.8-4.8-8-4-14.4-8.8-20.8-13.6-4-3.2-8-6.4-12-8.8-16-8-36-1.6-58.4 5.6-25.6 8-55.2 17.6-82.4 3.2-7.2-3.2-12.8-8-17.6-12-4-3.2-8.8-7.2-12.8-8.8-16-8-36 0.8-58.4 10.4-18.4 8-37.6 16.8-58.4 17.6-19.2 0.8-36-4.8-52.8-10.4-16-4.8-30.4-10.4-44-8.8-11.2 1.6-22.4 6.4-34.4 12.8-14.4 7.2-28.8 14.4-46.4 16-24.8 2.4-45.6-7.2-66.4-16-16-7.2-31.2-13.6-46.4-13.6h-0.8c-9.6 0-19.2 3.2-30.4 5.6-4.8 1.6-9.6 3.2-15.2 4-34.4 8-72 4.8-104.8-8.8-8-3.2-12-12.8-8.8-20.8 3.2-8 12.8-12 20.8-8.8 26.4 11.2 56.8 13.6 84.8 7.2 4.8-0.8 8.8-2.4 13.6-4 12-3.2 24.8-7.2 38.4-7.2h0.8c21.6 0 40.8 8.8 59.2 16.8 17.6 8 34.4 15.2 50.4 13.6 11.2-0.8 23.2-6.4 35.2-12.8 13.6-7.2 28-13.6 44.8-16 20.8-2.4 40 4 57.6 10.4 14.4 4.8 28 9.6 41.6 8.8 14.4-0.8 30.4-7.2 46.4-14.4 26.4-12 56-24.8 85.6-9.6 7.2 3.2 12.8 8 18.4 12.8 4 3.2 8 6.4 12 8.8 16 8 36 1.6 58.4-5.6 25.6-8 55.2-17.6 82.4-3.2 7.2 3.2 12.8 8 17.6 12 4.8 4 8.8 7.2 13.6 9.6 13.6 6.4 30.4-0.8 50.4-8.8 8.8-4 18.4-7.2 28-10.4 41.6-11.2 84 1.6 118.4 12.8 8.8 2.4 12.8 12 10.4 20-2.4 8.8-11.2 12.8-20 10.4-30.4-9.6-68-21.6-100.8-12-8 2.4-16 5.6-24 8.8-13.6 4.8-30.4 12-48 12zM1004 376.8H20c-4.8 0-8-3.2-8-8s3.2-8 8-8h984c4.8 0 8 3.2 8 8 0 4-4 8-8 8zM739.2 294.4c-43.2 0-76.8-20-76.8-44.8s33.6-44.8 76.8-44.8c43.2 0 76.8 20 76.8 44.8s-34.4 44.8-76.8 44.8z m0-74.4c-36 0-60.8 15.2-60.8 28.8 0 13.6 24.8 28.8 60.8 28.8s60.8-15.2 60.8-28.8c0-13.6-25.6-28.8-60.8-28.8zM524.8 324.8c-32.8 0-57.6-14.4-57.6-32.8s24.8-32.8 57.6-32.8 57.6 14.4 57.6 32.8-24.8 32.8-57.6 32.8z m0-49.6c-25.6 0-41.6 9.6-41.6 16.8 0 7.2 16 16.8 41.6 16.8s41.6-9.6 41.6-16.8c0-7.2-16-16.8-41.6-16.8zM140 868c-1.6 0-3.2-0.8-4.8-1.6-4-3.2-9.6-5.6-15.2-6.4-4-0.8-7.2-4.8-7.2-8.8 0.8-4 4.8-7.2 8.8-7.2 8.8 0.8 16.8 4 23.2 9.6 3.2 2.4 4 8 1.6 11.2-1.6 2.4-4 3.2-6.4 3.2zM250.4 878.4c-4 0-8 0-11.2-1.6-4-0.8-7.2-5.6-6.4-9.6 0.8-4 5.6-7.2 9.6-6.4 10.4 2.4 21.6 0 30.4-5.6 4-2.4 8.8-1.6 11.2 2.4 2.4 4 1.6 8.8-2.4 11.2-9.6 6.4-20.8 9.6-31.2 9.6zM388.8 850.4c-3.2 0-5.6-1.6-7.2-4.8-1.6-4-6.4-8-10.4-8.8-4-1.6-6.4-5.6-5.6-9.6 1.6-4 5.6-6.4 9.6-5.6 8.8 2.4 16.8 9.6 20.8 17.6 1.6 4 0 8.8-4 10.4-0.8 0.8-2.4 0.8-3.2 0.8zM460 893.6h-9.6c-4.8 0-8-3.2-8-8s3.2-8 8-8h9.6c4.8 0 8 3.2 8 8 0 4-4 8-8 8zM588.8 835.2c-1.6 0-2.4 0-4-0.8L568 824c-4-2.4-4.8-7.2-3.2-11.2 2.4-4 7.2-4.8 11.2-3.2l16.8 10.4c4 2.4 4.8 7.2 3.2 11.2-1.6 2.4-4.8 4-7.2 4zM669.6 895.2c-8 0-16.8-2.4-24-7.2-4-2.4-4.8-7.2-2.4-11.2 2.4-4 7.2-4.8 11.2-2.4 4 3.2 9.6 4.8 15.2 4.8 4.8 0 8 4 8 8 0 4.8-4 8-8 8zM802.4 832h-20.8c-4.8 0-8-3.2-8-8s3.2-8 8-8h20.8c4.8 0 8 3.2 8 8 0 4-4 8-8 8zM830.4 897.6c-6.4 0-13.6-1.6-19.2-5.6-4-2.4-4.8-7.2-2.4-11.2 2.4-4 7.2-4.8 11.2-2.4 4 2.4 9.6 4 15.2 2.4 4-0.8 8.8 1.6 9.6 5.6 0.8 4-1.6 8.8-5.6 9.6-3.2 1.6-6.4 1.6-8.8 1.6zM929.6 872h-4c-4.8 0-8-3.2-8-8s3.2-8 8-8h4c4.8 0 8 3.2 8 8s-4 8-8 8zM924 496.8c-0.8 0-0.8 0 0 0-4.8-0.8-8-4-8-8.8-4-2.4-4.8-7.2-2.4-11.2 2.4-4 7.2-4.8 11.2-2.4 4.8 3.2 8 8.8 7.2 15.2-0.8 4-4 7.2-8 7.2zM612 491.2c-0.8 0-0.8 0 0 0-4.8-0.8-8-4-8-8.8 0.8-6.4 4.8-12 11.2-14.4 4-1.6 8.8 0.8 10.4 4.8 1.6 4-0.8 8.8-4.8 10.4l-0.8 0.8c-0.8 4-4 7.2-8 7.2zM500 468c-2.4 0-4-0.8-5.6-2.4l-8.8-10.4c-3.2-3.2-2.4-8 0.8-11.2 3.2-3.2 8-2.4 11.2 0.8l8.8 10.4c3.2 3.2 2.4 8-0.8 11.2-1.6 0.8-4 1.6-5.6 1.6zM248.8 483.2h-1.6c-4.8 0-8-4-8-8s4-8 8-8h0.8c15.2 0 30.4-4 43.2-12 4-2.4 8.8-0.8 11.2 2.4 2.4 4 0.8 8.8-2.4 11.2-15.2 9.6-32.8 14.4-51.2 14.4zM126.4 484.8h-5.6c-4.8 0-8-3.2-8-8s3.2-8 8-8h5.6c4.8 0 8 3.2 8 8s-3.2 8-8 8zM119.2 423.2h-13.6c-4.8 0-8-3.2-8-8s3.2-8 8-8h13.6c4.8 0 8 3.2 8 8s-4 8-8 8zM783.2 465.6c-2.4 0-4-0.8-5.6-2.4-3.2-3.2-8-4-12-3.2-4 0.8-8.8-1.6-9.6-6.4-0.8-4 1.6-8.8 6.4-9.6 9.6-2.4 20 0.8 26.4 8 3.2 3.2 3.2 8 0 11.2-1.6 1.6-3.2 2.4-5.6 2.4z" /></svg>