<?xml version="1.0" standalone="no"?><!DOCTYPE svg PUBLIC "-//W3C//DTD SVG 1.1//EN" "http://www.w3.org/Graphics/SVG/1.1/DTD/svg11.dtd"><svg class="icon" width="200px" height="200.00px" viewBox="0 0 1024 1024" version="1.1" xmlns="http://www.w3.org/2000/svg"><path fill="#333333" d="M427.2 1020c-158.4 0-307.2-61.6-419.2-173.6-6.4-6.4-6.4-16 0-22.4L824 8.8c6.4-6.4 16.8-6.4 22.4 0 112 112 173.6 260.8 173.6 419.2 0 158.4-61.6 307.2-173.6 419.2-112 111.2-260.8 172.8-419.2 172.8zM42.4 835.2c104.8 98.4 240.8 152.8 384.8 152.8 149.6 0 290.4-58.4 396-164 105.6-105.6 164-246.4 164-396 0-144-54.4-280-152.8-384.8l-792 792zM746.4 732c-16.8 0-32-6.4-44-18.4L513.6 524.8c-17.6-17.6-23.2-44-13.6-67.2 9.6-23.2 31.2-38.4 56.8-38.4H824c17.6 0 35.2 8 46.4 20.8 12 13.6 16.8 31.2 14.4 48.8-10.4 79.2-42.4 155.2-90.4 218.4-10.4 13.6-26.4 22.4-44 23.2-1.6 1.6-3.2 1.6-4 1.6zM524.8 513.6l188.8 188.8a46.4 46.4 0 0 0 36 13.6c12.8-0.8 24.8-7.2 32.8-17.6 47.2-61.6 77.6-134.4 87.2-211.2 1.6-12.8-2.4-26.4-11.2-36-8.8-9.6-21.6-16-34.4-16H557.6c-22.4 0-36.8 14.4-42.4 28-5.6 14.4-6.4 34.4 9.6 50.4zM824 435.2H557.6c-25.6 0-47.2-14.4-56.8-38.4-9.6-23.2-4.8-49.6 13.6-67.2l188.8-188.8c12.8-12.8 30.4-19.2 48-18.4 17.6 0.8 33.6 9.6 44 23.2 48.8 63.2 80 139.2 90.4 218.4 2.4 17.6-3.2 35.2-14.4 48.8-12.8 15.2-29.6 22.4-47.2 22.4z m-77.6-296c-12 0-24 4.8-32.8 13.6L524.8 341.6c-16 16-15.2 36-9.6 49.6 5.6 13.6 20 28 42.4 28H824c13.6 0 25.6-5.6 34.4-16 8.8-9.6 12.8-23.2 11.2-36-10.4-76.8-40.8-149.6-87.2-211.2-8-10.4-20-16.8-32.8-17.6-1.6 0.8-2.4 0.8-3.2 0.8zM373.6 885.6c-2.4 0-5.6 0-8-0.8-79.2-10.4-155.2-42.4-218.4-90.4-13.6-10.4-22.4-26.4-23.2-44-0.8-17.6 5.6-35.2 18.4-48l188.8-188.8c17.6-17.6 44-23.2 67.2-13.6 23.2 9.6 38.4 31.2 38.4 56.8V824c0 17.6-8 35.2-20.8 46.4-12.8 9.6-27.2 15.2-42.4 15.2z m-216.8-104c61.6 47.2 134.4 77.6 211.2 87.2 12.8 1.6 26.4-2.4 36-11.2 9.6-8.8 16-21.6 16-34.4V557.6c0-22.4-14.4-36.8-28-42.4-13.6-5.6-33.6-6.4-49.6 9.6L152.8 713.6a46.4 46.4 0 0 0-13.6 36c0.8 12.8 7.2 24 17.6 32zM481.6 885.6c-15.2 0-29.6-5.6-40.8-15.2-13.6-12-20.8-28.8-20.8-46.4V557.6c0-25.6 14.4-47.2 38.4-56.8 23.2-9.6 49.6-4.8 67.2 13.6l188.8 188.8c12.8 12.8 19.2 30.4 18.4 48-0.8 17.6-9.6 33.6-23.2 44-63.2 48.8-139.2 80-218.4 90.4h-9.6z m0-374.4c-6.4 0-12.8 1.6-17.6 3.2-13.6 5.6-28 20-28 42.4V824c0 13.6 5.6 25.6 16 34.4 9.6 8.8 23.2 12.8 36 11.2 76.8-10.4 149.6-40.8 211.2-87.2 10.4-8 16.8-20 17.6-32.8 0.8-13.6-4-26.4-13.6-36L513.6 524.8c-9.6-9.6-21.6-13.6-32-13.6z" /></svg>