<?xml version="1.0" standalone="no"?><!DOCTYPE svg PUBLIC "-//W3C//DTD SVG 1.1//EN" "http://www.w3.org/Graphics/SVG/1.1/DTD/svg11.dtd"><svg class="icon" width="200px" height="200.00px" viewBox="0 0 1024 1024" version="1.1" xmlns="http://www.w3.org/2000/svg"><path fill="#333333" d="M472.8 911.2c-128.8 0-254.4-24.8-373.6-72.8l-3.2 6.4c-1.6 4-6.4 5.6-10.4 4-4-1.6-5.6-6.4-4-10.4l6.4-13.6c1.6-4 6.4-5.6 10.4-4 119.2 49.6 244.8 74.4 374.4 74.4 157.6 0 308-36.8 447.2-108.8 4-2.4 8.8-0.8 10.4 3.2 2.4 4 0.8 8.8-3.2 10.4-141.6 74.4-294.4 111.2-454.4 111.2zM472.8 1020c-148 0-290.4-31.2-423.2-93.6-4-1.6-7.2-4.8-8-8.8-1.6-4-1.6-8 0.8-12L459.2 13.6c2.4-5.6 8-8.8 13.6-9.6 6.4 0 11.2 2.4 14.4 8l449.6 774.4 44 76c4.8 8 1.6 17.6-5.6 21.6-151.2 88.8-325.6 136-502.4 136zM77.6 904c124.8 56 257.6 84 395.2 84 166.4 0 329.6-42.4 473.6-123.2L475.2 54.4 77.6 904zM461.6 348c-4.8 0-8-3.2-8-8V312c0-4.8 3.2-8 8-8s8 3.2 8 8v28.8c0 4-3.2 7.2-8 7.2zM387.2 531.2c-3.2 0-6.4-1.6-7.2-5.6l-11.2-31.2c-1.6-4 0.8-8.8 4.8-10.4 4-1.6 8.8 0.8 10.4 4.8l11.2 31.2c1.6 4-0.8 8.8-4.8 10.4-0.8 0-1.6 0.8-3.2 0.8zM288.8 696.8c-2.4 0-4-0.8-5.6-2.4-9.6-9.6-16-22.4-16.8-36 0-4.8 3.2-8 7.2-8.8 4.8-0.8 8 3.2 8.8 7.2 0.8 9.6 5.6 19.2 12 25.6 3.2 3.2 3.2 8 0 11.2-1.6 2.4-4 3.2-5.6 3.2zM468.8 781.6c-1.6 0-3.2-0.8-4.8-1.6l-20.8-14.4c-4-2.4-4.8-7.2-2.4-11.2 2.4-4 7.2-4.8 11.2-2.4l21.6 14.4c4 2.4 4.8 7.2 2.4 11.2-1.6 3.2-4.8 4-7.2 4zM525.6 592c-2.4 0-4.8-0.8-6.4-3.2-6.4-8.8-9.6-20-8.8-31.2 0-4.8 4-8 8.8-7.2 4.8 0 8 4 7.2 8.8-0.8 7.2 1.6 15.2 5.6 20.8 2.4 4 1.6 8.8-1.6 11.2-1.6 0.8-3.2 0.8-4.8 0.8zM635.2 502.4c-3.2 0-6.4-2.4-7.2-5.6L616 460.8c-1.6-4 0.8-8.8 4.8-10.4 4-1.6 8.8 0.8 10.4 4.8l12 35.2c1.6 4-0.8 8.8-4.8 10.4-1.6 0.8-2.4 1.6-3.2 1.6zM711.2 701.6c-3.2 0-6.4-1.6-7.2-4.8-5.6-15.2-9.6-31.2-10.4-47.2 0-4.8 3.2-8 7.2-8.8 4.8-0.8 8 3.2 8.8 7.2 0.8 14.4 4 28.8 9.6 42.4 1.6 4-0.8 8.8-4.8 10.4-1.6 0-2.4 0.8-3.2 0.8zM623.2 753.6c-1.6 0-3.2 0-4-1.6-4.8-3.2-10.4-4-16-3.2-4.8 0.8-8-2.4-8.8-7.2-0.8-4 2.4-8 7.2-8.8 9.6-0.8 18.4 0.8 26.4 5.6 4 2.4 4.8 7.2 2.4 11.2-1.6 2.4-4.8 4-7.2 4z" /></svg>