<?xml version="1.0" standalone="no"?><!DOCTYPE svg PUBLIC "-//W3C//DTD SVG 1.1//EN" "http://www.w3.org/Graphics/SVG/1.1/DTD/svg11.dtd"><svg class="icon" width="200px" height="200.00px" viewBox="0 0 1024 1024" version="1.1" xmlns="http://www.w3.org/2000/svg"><path d="M447.958 15.674h128.084c192.586 0 350.642 142.106 366.87 336.458h-126.71L447.958 15.674z" fill="#8CC63F" /><path d="M100.238 223.81C159.8 100.634 285.95 15.674 431.948 15.674c198.008 0 359.516 156.284 367.9 352.228l-95.722 32.024-336.22-16.01-267.668-160.106z" fill="#009245" /><path d="M351.894 47.696c196.274 0 356.588 153.576 367.554 347.104l80.398-26.898C791.462 171.956 629.956 15.674 431.948 15.674c-63.968 0-124.122 16.32-176.538 45.008 30.774-8.34 63.07-12.986 96.484-12.986z" fill="#39B54A" /><path d="M351.894 367.904l192.128-176.116 144.094 224.148-80.052 80.054-64.042-32.022-112.074 64.042z" fill="#39B54A" /><path d="M544.022 191.788l-192.128 176.116 0.916 1.832L512 223.81l144.096 224.148 32.02-32.022z" fill="#8CC63F" /><path d="M608.064 495.99l-64.042-32.022-112.074 64.042 14.956 194.432a163.156 163.156 0 0 0 4.388 27.04l16.204 46.732c6.174 17.8 27.888 24.442 42.962 13.136l20.216-15.162a33.362 33.362 0 0 0 13.348-26.696v-95.39l64.042-176.112z" fill="#006837" /><path d="M383.916 912.262c26.528 0 48.032 21.504 48.032 48.032v48.032h160.106v-64.042c0-17.684 14.336-32.022 32.022-32.022" fill="#39B54A" /><path d="M576.042 912.196c-17.684 0-31.65 14.402-31.65 32.088v64.042h48.066v-64.042c0-17.686 13.932-32.088 31.616-32.088h-48.032z" fill="#8CC63F" /><path d="M479.978 816.202c35.37 0 64.042-28.672 64.042-64.042v-52.178c0-192.242 155.842-348.086 348.086-348.086h116.22v37.66c-17.684 0-32.022 14.336-32.022 32.022v32.732c0 230.172-164.184 427.948-384.252 466.98l-96.064 6.984-16.01-112.072z" fill="#8CC63F" /><path d="M528.212 880.242c35.37 0 64.244-28.674 64.244-64.042v-52.178c0-192.242 155.44-347.108 347.682-347.108h36.736c2.672-14.628 15.7-27.36 31.452-27.36v-37.424h-116.22c-192.242 0-347.714 155.606-347.714 347.848v52.178c0 35.37-28.858 64.042-64.228 64.042l15.918 112.074 38.538-2.798-6.408-45.232z" fill="#39B54A" /><path d="M525.048 928.096C262.66 935.29 47.696 724.732 47.696 463.968V287.852c0-17.684-14.336-32.022-32.022-32.022v-32.022h28.574c222.962 0 403.708 180.746 403.708 403.708v92.618c0 100.714 77.502 183.986 176.116 192.126" fill="#009245" /><path d="M446.172 720.138v-92.616c0-222.962-178.96-402.866-401.924-402.866H15.674v0.8c206.338 17.974 367.804 191.066 367.804 402.066v92.616c0 100.714 77.722 183.986 176.334 192.126l-88.474 14.162c17.612 1.524 35.534 2.166 53.656 1.67l98.16-15.83c-98.614-8.144-176.982-91.416-176.982-192.128z" fill="#8CC63F" /><path d="M286.21 172.664l-17.91-25.796c48.144-33.236 104.728-50.802 163.242-50.802v31.346c-52.244-0.002-102.446 15.648-145.332 45.252zM236.366 217.944l-23.89-20.296a290.436 290.436 0 0 1 33.974-33.854l20.212 23.962a258.916 258.916 0 0 0-30.296 30.188z" fill="#FFFFFF" /><path d="M955.876 336.22c-11.724-88.708-53.918-170.348-119.996-231.454-70.826-65.496-163.028-101.588-259.654-101.632 0 0-141.68-3.134-144.28-3.134-73.558 0-145.04 20.868-206.718 60.352a384.888 384.888 0 0 0-135.86 150.218 422.46 422.46 0 0 0-45.12-2.432H0v63.368h15.674c9.014 0 16.346 7.334 16.346 16.348v176.116c0 130.7 51.6 252.882 145.296 344.044 63.436 61.72 140.632 103.718 224.5 123.306 8.706 6.676 14.458 17.75 14.458 28.978V1024h191.452v-79.716c0-4.218 1.618-8.054 4.25-10.956 92.686-20.002 177.592-67.81 244.932-139.09 87.102-92.202 135.072-212.924 135.072-339.928v-32.734c0-9.014 7.334-16.346 16.346-16.346H1024V336.22h-68.124zM814.6 127.782c59.66 55.17 98.102 128.572 109.612 208.438h-32.106a363.496 363.496 0 0 0-78.246 8.502 383.392 383.392 0 0 0-14.356-72.004h66.716v-31.346h-77.676a377.73 377.73 0 0 0-7.168-16.718h34.688V193.306h-50.772a383.338 383.338 0 0 0-10.148-16.718H768V145.24h-35.296a387.508 387.508 0 0 0-34.836-38.236c-31.416-30.174-67.154-54.422-105.758-72.154 82.886 3.746 161.366 36.408 222.49 92.932zM242.13 86.752c56.62-36.246 122.26-55.404 189.816-55.404 91.506 0 178.23 34.898 244.2 98.264 45.67 43.87 78.1 98.196 94.974 157.736h-65.816v31.346h73.168a353.86 353.86 0 0 1 4.684 34.2 362.388 362.388 0 0 0-89.636 42.468L547.144 167.664l-117.692 107.884v-98.96h-31.346v127.478h0.236l-31.584 28.95v-43.578h-31.346v36.55a426.626 426.626 0 0 0-18.808-17.108v-69.598h-31.346v45.218c-47.954-33.794-103.278-57.784-163.044-69.068a353.606 353.606 0 0 1 119.916-128.68zM529.46 671.87c-0.712 9.28-1.114 18.65-1.114 28.112v52.178c0 25.71-20.162 46.798-45.508 48.284-12.548-24.666-19.208-52.096-19.208-80.306v-0.202h32.694v-31.346h-32.696V627.52c0-32.148-3.658-63.45-10.538-93.542l91.422-52.24 42.06 21.03a361.51 361.51 0 0 0-53.332 137.754h-36.914v31.346h33.134v0.002z m14.066-225.672l-98.876 56.502c-15.338-49.096-39.46-94.35-70.542-133.896l146.976-134.728-24.542 147.262 30.922 5.154 25.34-152.056 115.204 179.202a366.918 366.918 0 0 0-63.034 63.282l-61.448-30.722zM199.176 785.546C111.6 700.338 63.368 586.134 63.368 463.97v-176.116c0-20.81-13.398-38.55-32.02-45.05v-3.32h12.902c213.964 0 388.036 174.072 388.036 388.038v92.616c0 52.512 19.612 102.728 55.222 141.396a209.152 209.152 0 0 0 41.98 35.056h-24.644c-66.864 0-121.26-54.398-121.26-121.262v-23.092c0-24.85-9.514-47.518-25.088-64.56l28.5-28.5-22.166-22.164-31.156 31.156a95.212 95.212 0 0 0-45.894-11.732c-26.628 0-48.292-21.662-48.292-48.292v-9.594l67.456-67.458-22.166-22.164-45.424 45.424c-1.356-32.982-14.822-63.798-38.302-87.278l-38.2-38.2-22.166 22.164 30.656 30.662h-42.82v31.346h68.008c7.58 14.248 11.604 30.226 11.604 46.824v48.272a79.156 79.156 0 0 0 6.908 32.384H191.216v31.346h48.066v-0.62c13.442 10.352 30.256 16.53 48.494 16.53 24.63 0 46.068 13.89 56.916 34.246h-74.062v31.346h81.604v21.956c0 53.864 28.074 101.264 70.334 128.43-83.628-16.806-160.7-57.22-223.392-118.214z m377.204 158.738v48.368h-128.758v-32.358c0-7.39-1.278-14.484-3.602-21.088a487.442 487.442 0 0 0 81.46 4.558c17.22-0.472 34.282-1.906 51.138-4.21a47.374 47.374 0 0 0-0.238 4.73z m416.274-567.758c-18.622 6.498-32.02 24.24-32.02 45.05v32.734c0 118.966-44.928 232.044-126.512 318.402-57.086 60.43-127.652 102.816-204.872 124.118l-4.034-0.2a174.362 174.362 0 0 1-43.986-9.53c53.482-20.05 90.036-72.344 90.514-133.726h62.82v-31.346h-62.796v-1.888c0-17.842 14.516-32.358 32.358-32.358 35.128 0 63.704-28.578 63.704-63.706v-16.99h48.236V575.74h-46.134c7.242-27.626 32.414-48.066 62.28-48.066v-31.346a95.146 95.146 0 0 0-49.582 13.868v-30.586h-31.346v61.41a95.132 95.132 0 0 0-14.798 51.032v32.02c0 17.842-14.516 32.358-32.356 32.358-0.306 0-0.606 0.018-0.912 0.022v-63.996h-31.346v72.778c-18.8 11.088-31.45 31.542-31.45 54.904v32.022c0 58.788-45.368 107.146-102.926 111.98a178.412 178.412 0 0 1-26.928-23.84 178.97 178.97 0 0 1-9.534-11.246c33.774-9.256 58.66-40.222 58.66-76.894v-52.178c0-183.292 149.12-332.412 332.412-332.412h100.548v8.956z"  /></svg>