<?xml version="1.0" standalone="no"?><!DOCTYPE svg PUBLIC "-//W3C//DTD SVG 1.1//EN" "http://www.w3.org/Graphics/SVG/1.1/DTD/svg11.dtd"><svg class="icon" width="200px" height="200.00px" viewBox="0 0 1024 1024" version="1.1" xmlns="http://www.w3.org/2000/svg"><path fill="#333333" d="M512 1020C232 1020 4 792 4 512S232 4 512 4C575.2 4 637.6 16 696.8 38.4c8 3.2 12 12.8 8.8 20.8l-28 70.4c-3.2 8-12.8 12-20.8 8.8-8-3.2-12-12.8-8.8-20.8l21.6-56c-51.2-17.6-104-27.2-158.4-27.2C249.6 36 36 249.6 36 512c0 262.4 213.6 476 476 476s476-213.6 476-476c0-24-1.6-48.8-5.6-72.8l-70.4 13.6c-8.8 1.6-16.8-4-18.4-12.8-1.6-8.8 4-16.8 12.8-18.4l86.4-16.8c4-0.8 8.8 0 12 2.4 3.2 2.4 5.6 6.4 6.4 10.4 5.6 31.2 8.8 63.2 8.8 94.4 0 280-228 508-508 508zM512 924c-227.2 0-412-184.8-412-412S284.8 100 512 100c48.8 0 96.8 8.8 142.4 25.6l1.6-4c1.6-4 6.4-6.4 10.4-4.8 4 1.6 6.4 6.4 4.8 10.4l-4.8 11.2c-1.6 4-6.4 6.4-10.4 4.8-46.4-17.6-94.4-27.2-144-27.2-218.4 0-396 177.6-396 396s177.6 396 396 396 396-177.6 396-396c0-24.8-2.4-49.6-7.2-73.6-0.8-4 2.4-8.8 6.4-9.6 4-0.8 8.8 2.4 9.6 6.4 4.8 25.6 7.2 51.2 7.2 76.8 0 227.2-184.8 412-412 412zM512 528c-4.8 0-9.6-2.4-12-5.6-4-4.8-4.8-10.4-2.4-16l146.4-376c3.2-8 12.8-12 20.8-8.8 8 3.2 12 12.8 8.8 20.8l-136 349.6 368-69.6c8.8-1.6 16.8 4 18.4 12.8 1.6 8.8-4 16.8-12.8 18.4L515.2 528H512zM512 924c-227.2 0-412-184.8-412-412S284.8 100 512 100c51.2 0 101.6 9.6 149.6 28 4 1.6 6.4 6.4 4.8 10.4-1.6 4-6.4 6.4-10.4 4.8-46.4-17.6-94.4-27.2-144-27.2-218.4 0-396 177.6-396 396s177.6 396 396 396 396-177.6 396-396c0-24.8-2.4-49.6-7.2-73.6-0.8-4 2.4-8.8 6.4-9.6 4-0.8 8.8 2.4 9.6 6.4 4.8 25.6 7.2 51.2 7.2 76.8 0 227.2-184.8 412-412 412zM347.2 512.8c-28 0-51.2-23.2-51.2-51.2 0-28 23.2-51.2 51.2-51.2 28 0 51.2 23.2 51.2 51.2 0 28-23.2 51.2-51.2 51.2z m0-87.2c-19.2 0-35.2 16-35.2 35.2 0 19.2 16 35.2 35.2 35.2 19.2 0 35.2-16 35.2-35.2 0-19.2-16-35.2-35.2-35.2zM579.2 776.8c-29.6 0-52.8-24-52.8-52.8 0-29.6 24-52.8 52.8-52.8 29.6 0 52.8 24 52.8 52.8 0 28.8-24 52.8-52.8 52.8z m0-90.4c-20.8 0-36.8 16.8-36.8 36.8 0 20.8 16.8 36.8 36.8 36.8 20.8 0 36.8-16.8 36.8-36.8 0-20-16.8-36.8-36.8-36.8zM369.6 257.6c-3.2 0-6.4-1.6-7.2-4.8-1.6-4 0-8.8 4-10.4 11.2-4.8 23.2-8 36-9.6 4-0.8 8.8 2.4 8.8 6.4 0.8 4-2.4 8.8-6.4 8.8-11.2 1.6-21.6 4.8-32 8.8-0.8 0.8-2.4 0.8-3.2 0.8zM545.6 224.8c-2.4 0-4.8-0.8-6.4-2.4-3.2-4-9.6-6.4-14.4-5.6-4 0.8-8.8-2.4-8.8-6.4-0.8-4 2.4-8.8 6.4-8.8 10.4-1.6 22.4 2.4 29.6 10.4 3.2 3.2 2.4 8-0.8 11.2-1.6 0.8-3.2 1.6-5.6 1.6zM347.2 666.4c-2.4 0-4-0.8-5.6-2.4l-16-16c-3.2-3.2-3.2-8 0-11.2 3.2-3.2 8-3.2 11.2 0l16 16c3.2 3.2 3.2 8 0 11.2-1.6 1.6-4 2.4-5.6 2.4zM449.6 828.8c-0.8 0-1.6 0-2.4-0.8l-36-12c-4-1.6-6.4-5.6-4.8-10.4 1.6-4 5.6-6.4 10.4-4.8l36 12c4 1.6 6.4 5.6 4.8 10.4-1.6 3.2-4.8 5.6-8 5.6zM776.8 654.4c-1.6 0-3.2 0-4-1.6-4-2.4-4.8-7.2-2.4-11.2l10.4-16c2.4-4 7.2-4.8 11.2-2.4 4 2.4 4.8 7.2 2.4 11.2l-10.4 16c-2.4 2.4-4.8 4-7.2 4zM308 352.8c-1.6 0-3.2-0.8-4.8-1.6-2.4-1.6-5.6-2.4-8.8-2.4-4 0-8-3.2-8.8-7.2 0-4.8 3.2-8 7.2-8.8 7.2-0.8 13.6 1.6 19.2 5.6 3.2 2.4 4 8 1.6 11.2-0.8 2.4-3.2 3.2-5.6 3.2zM259.2 578.4c-1.6 0-3.2-0.8-4.8-1.6l-25.6-19.2c-3.2-2.4-4-8-1.6-11.2 2.4-3.2 8-4 11.2-1.6l25.6 19.2c3.2 2.4 4 8 1.6 11.2-1.6 1.6-4 3.2-6.4 3.2zM792.8 524h-1.6c-7.2-1.6-14.4-2.4-21.6-1.6-4.8 0-8-3.2-8.8-7.2 0-4.8 3.2-8 7.2-8.8 8.8-0.8 17.6 0 26.4 2.4 4 0.8 7.2 5.6 5.6 9.6-0.8 3.2-4 5.6-7.2 5.6zM477.6 604c-1.6 0-2.4 0-4-0.8-11.2-6.4-20.8-13.6-28.8-23.2-3.2-3.2-2.4-8 0.8-11.2 3.2-3.2 8-2.4 11.2 0.8 7.2 8 15.2 14.4 24.8 20 4 2.4 4.8 7.2 3.2 11.2-1.6 1.6-4 3.2-7.2 3.2zM481.6 367.2c-2.4 0-4.8-0.8-6.4-2.4-8-8.8-14.4-19.2-19.2-29.6-1.6-4 0-8.8 4-10.4 4-1.6 8.8 0 10.4 4 4.8 9.6 10.4 18.4 17.6 26.4 3.2 3.2 2.4 8.8-0.8 11.2-1.6 0-3.2 0.8-5.6 0.8zM668 612c-3.2 0-7.2-2.4-8-6.4 0-0.8-1.6-2.4-2.4-2.4-4.8 0-8-4-8-8 0-4.8 4-8 8-8 8 0 15.2 6.4 17.6 14.4 0.8 4-1.6 8.8-5.6 9.6 0 0.8-0.8 0.8-1.6 0.8zM275.2 742.4c-2.4 0-4-0.8-5.6-2.4l-10.4-10.4c-3.2-3.2-3.2-8 0-11.2 3.2-3.2 8-3.2 11.2 0l10.4 10.4c3.2 3.2 3.2 8 0 11.2-1.6 1.6-3.2 2.4-5.6 2.4z" /></svg>