<?xml version="1.0" standalone="no"?><!DOCTYPE svg PUBLIC "-//W3C//DTD SVG 1.1//EN" "http://www.w3.org/Graphics/SVG/1.1/DTD/svg11.dtd"><svg class="icon" width="200px" height="200.00px" viewBox="0 0 1024 1024" version="1.1" xmlns="http://www.w3.org/2000/svg"><path fill="#333333" d="M673.6 146.4H350.4c-8.8 0-16-7.2-16-16V20c0-8.8 7.2-16 16-16h324c8.8 0 16 7.2 16 16v110.4c-0.8 8.8-8 16-16.8 16z m-307.2-32h292V36H366.4v78.4zM746.4 1020H277.6c-8.8 0-16-7.2-16-16V386.4c0-2.4 0.8-4 1.6-6.4l107.2-255.2c2.4-5.6 8-9.6 14.4-9.6h253.6c6.4 0 12 4 14.4 9.6L760 380c0.8 1.6 1.6 4 1.6 6.4v617.6c0.8 8.8-6.4 16-15.2 16z m-452.8-32h436.8V389.6L628 146.4h-232L293.6 389.6v598.4zM746.4 394.4H277.6c-4.8 0-8-3.2-8-8s3.2-8 8-8h468.8c4.8 0 8 3.2 8 8 0 4-4 8-8 8z" /></svg>