<?xml version="1.0" standalone="no"?><!DOCTYPE svg PUBLIC "-//W3C//DTD SVG 1.1//EN" "http://www.w3.org/Graphics/SVG/1.1/DTD/svg11.dtd"><svg class="icon" width="200px" height="200.00px" viewBox="0 0 1024 1024" version="1.1" xmlns="http://www.w3.org/2000/svg"><path fill="#333333" d="M654.4 970.4c-144 0-261.6-117.6-261.6-261.6s117.6-261.6 261.6-261.6c144 0 261.6 117.6 261.6 261.6s-117.6 261.6-261.6 261.6z m0-492c-126.4 0-229.6 103.2-229.6 229.6s103.2 229.6 229.6 229.6c126.4 0 229.6-103.2 229.6-229.6S780.8 478.4 654.4 478.4zM654.4 898.4c-4.8 0-8-3.2-8-8s3.2-8 8-8c96 0 173.6-77.6 173.6-173.6 0-4.8 3.2-8 8-8s8 3.2 8 8c0 104-84.8 189.6-189.6 189.6zM369.6 944c-144 0-261.6-117.6-261.6-261.6 0-144 117.6-261.6 261.6-261.6 62.4 0 123.2 22.4 171.2 64 4 3.2 5.6 8.8 5.6 13.6-0.8 4.8-3.2 9.6-8 12-70.4 40.8-113.6 116.8-113.6 198.4 0 66.4 28.8 130.4 80 173.6 4 3.2 5.6 8.8 5.6 13.6-0.8 4.8-3.2 9.6-8 12-40.8 23.2-86.4 36-132.8 36z m0-492c-126.4 0-229.6 103.2-229.6 229.6 0 126.4 103.2 229.6 229.6 229.6 33.6 0 66.4-7.2 96.8-21.6-47.2-48.8-73.6-113.6-73.6-182.4 0-84.8 41.6-164.8 110.4-213.6-39.2-26.4-85.6-41.6-133.6-41.6zM369.6 872c-104.8 0-189.6-84.8-189.6-189.6 0-4.8 3.2-8 8-8s8 3.2 8 8c0 96 77.6 173.6 173.6 173.6 5.6 0 10.4 0 16-0.8 4.8 0 8 3.2 8.8 7.2 0 4-3.2 8-7.2 8.8-6.4 0.8-12 0.8-17.6 0.8zM220 941.6c-4 0-8-1.6-11.2-4.8-6.4-6.4-6.4-16-0.8-22.4l28-29.6c6.4-6.4 16-6.4 22.4-0.8 6.4 6.4 6.4 16 0.8 22.4L232 936c-3.2 4-7.2 5.6-12 5.6zM260.8 967.2c-2.4 0-4.8-0.8-6.4-1.6-8-4-11.2-12.8-8-21.6l18.4-40c4-8 12.8-11.2 21.6-8 8 4 11.2 12.8 8 21.6l-18.4 40c-3.2 6.4-9.6 9.6-15.2 9.6zM311.2 980.8h-0.8c-8.8-0.8-15.2-8-15.2-16.8l2.4-43.2c0.8-8.8 8-16 16.8-15.2 8.8 0.8 15.2 8 15.2 16.8l-2.4 43.2c-0.8 8.8-7.2 15.2-16 15.2zM607.2 1008.8c-2.4 0-4.8-0.8-6.4-1.6-8-4-11.2-13.6-8-21.6l18.4-40c4-8 13.6-11.2 21.6-8 8 4 11.2 13.6 8 21.6l-18.4 40c-3.2 5.6-8.8 9.6-15.2 9.6zM659.2 1020c-8.8 0-16-7.2-16-16l0.8-48.8c0-8.8 7.2-16 16-16s16 7.2 16 16l-0.8 48.8c0 8.8-7.2 16-16 16zM706.4 1016.8c-7.2 0-14.4-5.6-16-12.8l-10.4-50.4c-1.6-8.8 4-16.8 12.8-19.2 8.8-1.6 16.8 4 19.2 12.8l10.4 50.4c1.6 8.8-4 16.8-12.8 19.2h-3.2zM789.6 314.4c-1.6 0-3.2 0-4.8-0.8-65.6-21.6-113.6-64.8-135.2-121.6-20.8-56.8-12.8-121.6 22.4-180 4-6.4 11.2-9.6 18.4-7.2 65.6 21.6 113.6 64.8 135.2 121.6 21.6 57.6 13.6 121.6-22.4 180.8-2.4 4.8-8 7.2-13.6 7.2z m-96-275.2C668.8 86.4 664 136 680 180.8s52.8 79.2 102.4 98.4c24.8-47.2 29.6-96.8 13.6-141.6-16.8-44-52.8-78.4-102.4-98.4zM667.2 478.4c-6.4 0-12.8-4-15.2-10.4-30.4-84.8-22.4-209.6-9.6-301.6-7.2-35.2-4.8-72.8 8-108.8C477.6 170.4 424.8 436.8 424 439.2c-1.6 8.8-10.4 14.4-18.4 12.8-8.8-1.6-14.4-10.4-12.8-18.4 2.4-13.6 64.8-327.2 286.4-428 5.6-2.4 12-1.6 16.8 2.4 4.8 4 6.4 10.4 5.6 16 0 1.6-0.8 3.2-1.6 4.8-26.4 44-35.2 90.4-25.6 133.6 0.8 1.6 0.8 4 0 5.6-12 88-20.8 209.6 8 288.8 3.2 8-1.6 17.6-9.6 20.8-1.6 0.8-4 0.8-5.6 0.8z" /></svg>