<?xml version="1.0" standalone="no"?><!DOCTYPE svg PUBLIC "-//W3C//DTD SVG 1.1//EN" "http://www.w3.org/Graphics/SVG/1.1/DTD/svg11.dtd"><svg class="icon" width="200px" height="200.00px" viewBox="0 0 1024 1024" version="1.1" xmlns="http://www.w3.org/2000/svg"><path fill="#333333" d="M193.074855 536.979928 47.18823 391.094326l0 120.679523L3.526825 511.773849 3.526825 285.667182l177.089277 177.147606c41.157375-66.656119 173.770695-231.461629 462.981586-224.359884 367.626845 9.140171 378.454448 275.704273 378.512776 278.382265l-43.660382 1.164522c-0.291642-9.314133-11.003612-227.852428-335.958588-235.886405-331.765079-8.674567-435.678754 222.963071-436.668291 225.291093L193.074855 536.979928zM625.435027 785.265734c-277.742698 0-404.476101-159.27454-444.760596-224.533846L3.585153 737.821165 3.585153 511.772826l43.661406 0 0 120.679523 145.769968-145.769968 12.8077 29.398564c4.133134 9.547447 104.553241 234.780211 436.784948 225.291093 324.779991-8.033977 335.957565-221.216287 336.248184-230.29813l43.661406 1.221828c-0.058328 2.620687-11.293207 263.596514-378.861724 272.735661C637.543809 785.207405 631.431601 785.265734 625.435027 785.265734zM703.093734 517.536087l-43.661406-0.233314c0.931209-165.213809 105.485473-241.47468 109.968577-244.676605l25.439392 35.510772C791.056112 310.874283 703.849958 375.550305 703.093734 517.536087zM768.585331 763.260557c-4.423753-3.492544-108.162442-86.914512-109.036345-251.371074l43.661406-0.234337c0.756223 142.626371 88.602967 214.347856 92.38613 217.315444L768.585331 763.260557zM840.596412 572.84067c-33.647331 0-61.066821-27.41949-61.066821-61.067844s27.41949-61.008492 61.066821-61.008492c33.648354 0 61.067844 27.360138 61.067844 61.008492S874.244766 572.84067 840.596412 572.84067zM840.596412 494.424716c-9.604752 0-17.406438 7.800663-17.406438 17.34811s7.801686 17.406438 17.406438 17.406438c9.605775 0 17.406438-7.800663 17.406438-17.406438S850.202187 494.424716 840.596412 494.424716z" /></svg>