<?xml version="1.0" standalone="no"?><!DOCTYPE svg PUBLIC "-//W3C//DTD SVG 1.1//EN" "http://www.w3.org/Graphics/SVG/1.1/DTD/svg11.dtd"><svg class="icon" width="200px" height="200.00px" viewBox="0 0 1024 1024" version="1.1" xmlns="http://www.w3.org/2000/svg"><path d="M670.2 255.7c-36.2 36.2-122.7 20.2-122.7 20.2s-15.9-86.5 20.2-122.7C603.9 117 690.4 133 690.4 133s15.9 86.5-20.2 122.7z" fill="#327522" /><path d="M590.4 311.4c-26.5 0-47.7-3.8-48.7-4-13.1-2.4-23.3-12.6-25.7-25.7-0.2-1-4.6-25.2-4-54.2 0.9-43.2 12-75.8 33-96.9 21-21 53.6-32.2 96.9-33 29.1-0.6 53.2 3.8 54.2 4 13.1 2.4 23.3 12.6 25.7 25.7 0.2 1 4.6 25.2 4 54.2-0.9 43.2-12 75.8-33 96.9-21 21-53.6 32.2-96.9 33h-5.5z m-14.1-64.3c26.9 1.5 58.7-1.5 71.2-14 8.6-8.6 13.8-27.9 14.3-52.9 0.1-6.5-0.1-12.7-0.4-18.3-26.9-1.5-58.6 1.5-71.1 14-12.4 12.5-15.5 44.2-14 71.2z" fill="#331008" /><path d="M338 255.7c36.2 36.2 122.7 20.2 122.7 20.2s15.9-86.5-20.2-122.7S317.7 133 317.7 133s-15.9 86.5 20.3 122.7z" fill="#327522" /><path d="M417.8 311.4c-1.8 0-3.7 0-5.6-0.1-43.2-0.9-75.8-12-96.9-33-21-21-32.2-53.6-33-96.9-0.6-29.1 3.8-53.2 4-54.2 2.4-13.1 12.6-23.3 25.7-25.7 1-0.2 25.2-4.6 54.2-4 43.2 0.9 75.8 12 96.9 33 21 21 32.2 53.6 33 96.9 0.6 29.1-3.8 53.2-4 54.2-2.4 13.1-12.6 23.3-25.7 25.7-0.9 0.3-22.1 4.1-48.6 4.1z m-57.2-78.3c12.5 12.5 44.3 15.5 71.2 14 1.5-26.9-1.5-58.7-14-71.2-8.6-8.6-27.9-13.8-52.9-14.3-6.5-0.1-12.7 0.1-18.3 0.4-1.5 26.8 1.5 58.6 14 71.1z" fill="#331008" /><path d="M572.4 189.8c0 51.1-72.4 101.1-72.4 101.1s-72.4-49.9-72.4-101.1S500 88.7 500 88.7s72.4 49.9 72.4 101.1z" fill="#3D8C2D" /><path d="M500 322.8c-6.3 0-12.7-1.9-18.2-5.7-0.8-0.6-21-14.6-41.1-35.6-29.9-31.2-45.1-62.1-45.1-91.9s15.2-60.7 45.1-91.9c20.1-21 40.3-35 41.1-35.6 10.9-7.5 25.4-7.5 36.3 0 0.8 0.6 21 14.6 41.1 35.6 29.9 31.2 45.1 62.1 45.1 91.9s-15.2 60.7-45.1 91.9c-20.1 21-40.3 35-41.1 35.6-5.4 3.9-11.8 5.7-18.1 5.7z m0-193.3c-20.1 18-40.4 42.6-40.4 60.3 0 17.7 20.3 42.3 40.4 60.3 20.1-18 40.4-42.6 40.4-60.3 0-17.7-20.3-42.3-40.4-60.3z" fill="#331008" /><path d="M830.9 434.8c-14.6-92.4-75.2-149.5-169.4-152.8-1.5-0.1-3-0.1-4.6-0.1H350c-2.6 0-5.1 0.1-7.4 0.3-92.9 4.6-157 60.2-166.6 152.7-10.5 100.4 38.8 225.3 117.3 329.8 34.2 45.5 91.6 87.1 122.6 121.1 44.6 49 130.5 49 175.1 0 30.6-33.7 87.7-74.8 121.6-119.8 78.9-104.9 128.8-230.4 118.3-331.2z" fill="#DD1D1D" /><path d="M490.1 913.1c-36.8 18.5-83.1 9.3-110.4-27.5-25.2-34-72.1-75.6-100-121.1-64.1-104.4-104.3-229.4-95.7-329.8 7.9-92.5 60.1-148.1 135.9-152.7 1.9-0.2 3.9-0.3 6-0.3h78c-2.1 0-4.1 0.1-6 0.3-75.8 4.5-128.1 60.2-135.9 152.7-8.5 100.4 31.6 225.3 95.7 329.8 27.9 45.5 74.8 87.1 100 121.1 9 12.2 20.2 21.4 32.4 27.5z" fill="#FF5050" /><path d="M740.6 765.8c-30.8 45-82.7 86.1-110.6 119.8-39.2 47.3-83.8 70.2-125.4 26.2 1.5-1.6 3-3.2 4.4-4.9 27.9-33.7 50.3-96 81.1-141 71.8-104.7 117.2-230.3 107.6-331.1-13.3-92.5-68.4-149.5-154.1-152.8-1.3-0.1-2.7-0.1-4.2-0.1H690c1.4 0 2.8 0 4.2 0.1 85.7 3.3 140.8 60.3 154.1 152.8 9.5 100.8-35.9 226.3-107.7 331z" fill="#BC1320" /><path d="M489.4 457.5m-45.6 0a45.6 45.6 0 1 0 91.2 0 45.6 45.6 0 1 0-91.2 0Z" fill="#BC1320" /><path d="M489.4 738.8m-45.6 0a45.6 45.6 0 1 0 91.2 0 45.6 45.6 0 1 0-91.2 0Z" fill="#BC1320" /><path d="M409.3 602.1m-45.6 0a45.6 45.6 0 1 0 91.2 0 45.6 45.6 0 1 0-91.2 0Z" fill="#BC1320" /><path d="M565.5 602.1m-45.6 0a45.6 45.6 0 1 0 91.2 0 45.6 45.6 0 1 0-91.2 0Z" fill="#BC1320" /><path d="M343.6 457.5m-45.6 0a45.6 45.6 0 1 0 91.2 0 45.6 45.6 0 1 0-91.2 0Z" fill="#BC1320" /><path d="M391 457.5c0 25.2-20.4 45.6-45.6 45.6-3.1 0-6-0.3-8.9-0.9 20.9-4.2 36.7-22.6 36.7-44.8 0-22.1-15.8-40.6-36.7-44.8 2.9-0.6 5.9-0.9 8.9-0.9 25.2 0.2 45.6 20.6 45.6 45.8zM536.9 457.5c0 25.2-20.4 45.6-45.6 45.6-3.1 0-6-0.3-8.9-0.9 20.9-4.2 36.7-22.6 36.7-44.8 0-22.1-15.8-40.6-36.7-44.8 2.9-0.6 5.9-0.9 8.9-0.9 25.2 0.2 45.6 20.6 45.6 45.8z" fill="#EA554E" /><path d="M629.5 457.5m-45.6 0a45.6 45.6 0 1 0 91.2 0 45.6 45.6 0 1 0-91.2 0Z" fill="#BC1320" /><path d="M677 457.5c0 25.2-20.4 45.6-45.6 45.6-3.1 0-6-0.3-8.9-0.9 20.9-4.2 36.7-22.6 36.7-44.8 0-22.1-15.8-40.6-36.7-44.8 2.9-0.6 5.9-0.9 8.9-0.9 25.2 0.2 45.6 20.6 45.6 45.8zM611.2 602.1c0 25.2-20.4 45.6-45.6 45.6-3.1 0-6-0.3-8.9-0.9 20.9-4.2 36.7-22.6 36.7-44.8s-15.8-40.6-36.7-44.8c2.9-0.6 5.9-0.9 8.9-0.9 25.1 0.2 45.6 20.6 45.6 45.8z" fill="#EA554E" /><path d="M535 738.8c0 25.2-20.4 45.6-45.6 45.6-3.1 0-6-0.3-8.9-0.9 20.9-4.2 36.7-22.6 36.7-44.8 0-22.1-15.8-40.6-36.7-44.8 2.9-0.6 5.9-0.9 8.9-0.9 25.2 0.2 45.6 20.6 45.6 45.8z" fill="#EA554E" /><path d="M454.8 602.1c0 25.2-20.4 45.6-45.6 45.6-3.1 0-6-0.3-8.9-0.9 20.9-4.2 36.7-22.6 36.7-44.8 0-22.1-15.8-40.6-36.7-44.8 2.9-0.6 5.9-0.9 8.9-0.9 25.2 0.2 45.6 20.6 45.6 45.8z" fill="#EA554E" /><path d="M503.4 954.4c-43.4 0-83.9-17.2-111.2-47.2-11.1-12.2-26.9-26.3-43.6-41.3-27.3-24.4-58.3-52.1-80.9-82.1-88.2-117.2-134.4-248.9-123.6-352.3 11.1-106.3 86.4-175.8 196.5-181.3 3-0.2 6.2-0.3 9.3-0.3h307c2 0 4.1 0.1 6.1 0.2 107.8 4 182.4 71.1 199.5 179.8 0.1 0.6 0.2 1.1 0.2 1.7 10.8 103.6-35.8 235.8-124.6 353.6-22.4 29.7-53 57-80.1 81.1-16.7 14.8-32.4 28.9-43.4 41-27.3 29.8-67.8 47.1-111.2 47.1zM349.9 313.8c-1.8 0-3.5 0.1-5.1 0.2h-0.7c-78.8 3.9-128.5 49.1-136.4 124-4.5 43.2 3.6 94.8 23.5 149 19.5 53.2 49.8 107.9 87.6 158.2 18.8 25 46 49.3 72.4 72.9 18 16.1 35 31.3 48.3 45.9 15.2 16.7 38.5 26.3 63.9 26.3s48.7-9.6 63.9-26.3c13.3-14.6 30.2-29.7 48.2-45.7 26-23.2 53-47.2 71.5-71.8 38-50.5 68.6-105.4 88.2-158.8 20-54.2 28.2-105.7 23.9-148.8-6.2-38.6-21.3-69-44.7-90.3-23.7-21.6-55.4-33.3-94.1-34.6h-0.8c-0.9-0.1-1.7-0.1-2.6-0.1h-307z" fill="#331008" /></svg>