<?xml version="1.0" standalone="no"?><!DOCTYPE svg PUBLIC "-//W3C//DTD SVG 1.1//EN" "http://www.w3.org/Graphics/SVG/1.1/DTD/svg11.dtd"><svg class="icon" width="200px" height="200.00px" viewBox="0 0 1024 1024" version="1.1" xmlns="http://www.w3.org/2000/svg"><path d="M777 651.6H229.8c-38.7 0-70-31.4-70-70 0-38.7 31.4-70 70-70H777c38.7 0 70 31.4 70 70 0 38.7-31.3 70-70 70z" fill="#35752C" /><path d="M793.3 511.6H247c-19.3 0-70.4-6.2-83.1 6.5-12.7 12.7 10.3 16.8 10.3 36.1 0 8.4 10.3 12.5 13 20 3.5-9.7 10.5-14.5 59.7-14.5h515.5c19.8 0 29.9 24 15.8 37.9-0.2 0.2-0.4 0.4-0.6 0.5-12.7 12.7-36.1 10.2-55.4 10.2l-506.6-4.9c-26 0-27.7-15.6-33.8-29.6 2.3 9.3-2.6 53.6 32 55.9H761c19.3 0 36.8-7.8 49.5-20.5 10.4-10.4 17.6-24.1 19.8-39.4 13.5 8.2 24 20.8 29.5 35.9 2.7-7.4 4.2-15.4 4.2-23.7 0.4-38.8-32-70.4-70.7-70.4z" fill="#37591A" /><path d="M651 617.9h-8.1c-36.8 0-66.6-29.8-66.6-66.6s29.8-66.6 66.6-66.6h8.1c36.8 0 66.6 29.8 66.6 66.6s-29.8 66.6-66.6 66.6z" fill="#37591A" /><path d="M777 683.6H229.8c-56.3 0-102-45.8-102-102 0-56.3 45.8-102 102-102H777c56.3 0 102 45.8 102 102 0 56.3-45.7 102-102 102z m-547.2-140c-21 0-38 17.1-38 38s17.1 38 38 38H777c21 0 38-17.1 38-38s-17.1-38-38-38H229.8z" fill="#331008" /><path d="M611.3 864H407.2c-117.3 0-212.4-95.1-212.4-212.4h628.9c0 117.3-95.1 212.4-212.4 212.4z" fill="#FFCF48" /><path d="M200 651.6C200 768.9 295.1 864 412.4 864h204.1c58.7 0 111.8-23.8 150.2-62.2 38.4-38.4 62.2-91.5 62.2-150.2H200z m372.3 157.7H403.5c-61.6 0-112.4-39.5-119.6-90.6-0.9-6.6 4.1-12.4 10.8-12.4h373.6c14.5 0 24.6 14.2 20.1 27.9-14.3 43.4-60.8 75.1-116.1 75.1z" fill="#F4A240" /><path d="M611.3 896H407.2c-65.3 0-126.7-25.4-172.8-71.6-46.2-46.2-71.6-107.5-71.6-172.8 0-17.7 14.3-32 32-32h628.9c17.7 0 32 14.3 32 32 0 65.3-25.4 126.7-71.6 172.8C738 870.6 676.6 896 611.3 896zM229.6 683.6c15.1 84.3 89 148.4 177.6 148.4h204.1c88.6 0 162.4-64.1 177.6-148.4H229.6z" fill="#331008" /><path d="M405.5 160h204.1C726.9 160 822 255.1 822 372.4H193.2c0-117.3 95-212.4 212.3-212.4z" fill="#FFCF48" /><path d="M754.6 196.3c-20.8-6.8-43-10.5-66-10.5H484.5c-58.7 0-111.8 23.8-150.2 62.2-32.7 32.7-54.8 76-60.7 124.3h-54.3c0-58.7 23.8-111.8 62.2-150.2C319.9 183.7 373 160 431.7 160h204.1c44 0 84.9 13.3 118.8 36.3z" fill="#FFE471" /><path d="M828.9 347.1c0-13.9-1.3-27.5-3.9-40.6h-29.7c-27.7-85-107.6-146.5-202-146.5h-84c81.7 0 152.6 46.1 188.2 113.8 7.8 14.9-3 32.8-19.9 32.8H203.8c-2.5 13.1-3.9 26.7-3.9 40.6h520.3c1 8.3 1.5 16.7 1.5 25.2h84c0-8.5-0.5-16.9-1.5-25.2h24.7z" fill="#F4A240" /><path d="M822.1 404.4H193.2c-17.7 0-32-14.3-32-32 0-65.3 25.4-126.7 71.6-172.8C279 153.4 340.3 128 405.6 128h204.1c65.3 0 126.7 25.4 172.8 71.6 46.2 46.2 71.6 107.5 71.6 172.8 0 17.6-14.3 32-32 32z m-594.1-64h559.3c-15.1-84.3-89-148.4-177.6-148.4H405.5C317 192 243.1 256.1 228 340.4z" fill="#331008" /><path d="M777 372.6H229.8c-38.7 0-70 31.4-70 70 0 38.7 31.4 70 70 70H548V524c0 33.1 26.9 60 60 60s60-26.9 60-60v-11.4h109c38.7 0 70-31.4 70-70s-31.3-70-70-70z" fill="#DD4A36" /><path d="M816 368.4c-10.5-10.5-75.1 13.3-76.1 14.1 12.9 12.9 32.1-0.4 46.9 23.9 23 50-9.1 62.3-60.3 62.3h-76.2c-16.5 0-30.7 11.3-34.7 27.3-2.4 9.6 3.6 36.8-4.4 43.7-14.2 13.6-22.6-0.6-39.2-0.6-1.7 0-3.5-0.1-5.2-0.2 11 12 13.1 20.5 30.6 20.5 16.6 0 31.6-6.7 42.4-17.6 10.9-10.9 17.6-25.9 17.6-42.4V488h108.2c38.5 0 70.5-30.8 70.9-69.3 0.2-19.7-7.7-37.5-20.5-50.3z" fill="#C62A2A" /><path d="M576.9 535.5c-5.9-14 5.8-38.8 1.3-49.1-4.6-10.7-15.1-17.7-26.8-17.7h-316c-12.1 0-26.7-8.7-32.3-19.5-7.7-14.9-10.1-32.9-10.1-32.9l-22.4 25.2 20.9 27.1c-3.4 0-6.7-0.2-9.9-0.7 3.4 3.4 7.2 6.4 11.3 9 10.9 6.9 23.8 11 37.6 11l346.4 47.6z" fill="#C62A2A" /><path d="M607.9 615.3c-43.7 0-80.3-30.6-89.7-71.4H229.8c-56.3 0-102-45.8-102-102s45.8-102 102-102H777c56.3 0 102 45.8 102 102s-45.8 102-102 102h-79.4c-9.4 40.8-46 71.4-89.7 71.4zM229.8 403.8c-21 0-38 17.1-38 38s17.1 38 38 38H548c17.7 0 32 14.3 32 32v11.4c0 15.4 12.6 28 28 28s28-12.6 28-28v-11.4c0-17.7 14.3-32 32-32h109c21 0 38-17.1 38-38s-17.1-38-38-38H229.8z" fill="#331008" /></svg>