<?xml version="1.0" standalone="no"?><!DOCTYPE svg PUBLIC "-//W3C//DTD SVG 1.1//EN" "http://www.w3.org/Graphics/SVG/1.1/DTD/svg11.dtd"><svg class="icon" width="200px" height="200.00px" viewBox="0 0 1024 1024" version="1.1" xmlns="http://www.w3.org/2000/svg"><path d="M789.9 217.4c7.7 57.4-39.6 111.1-39.6 111.1s-59.8-39.3-67.6-96.7 39.6-111.1 39.6-111.1 59.8 39.2 67.6 96.7z" fill="#3D8C2D" /><path d="M750.3 360.5c-6.1 0-12.2-1.7-17.6-5.3-1.9-1.2-18.7-12.5-36.7-31.7-25.4-27.1-41-57.4-45-87.5-4.1-30.1 3-63.4 20.3-96.3 12.3-23.3 25.5-38.6 27-40.3 10.5-12 28.3-14.4 41.6-5.6 1.9 1.2 18.7 12.5 36.7 31.7 25.4 27.1 41 57.4 45 87.5 4.1 30.1-3 63.4-20.3 96.3-12.3 23.3-25.5 38.6-27 40.3-6.3 7.2-15.1 10.9-24 10.9z m-21.6-192.3c-9.1 17-17 38.9-14.3 59.3 2.9 21.3 17 40.2 28.3 52.3 0.4 0.4 0.7 0.8 1.1 1.2 9.1-17 17-38.9 14.3-59.4-2.7-20.4-16.1-39.4-29.4-53.4z" fill="#331008" /><path d="M842.5 367.1c-38.5 5.2-76.1-38.5-76.1-38.5s24.8-52 63.3-57.2 76.1 38.5 76.1 38.5-24.8 52.1-63.3 57.2z" fill="#327522" /><path d="M836 399.6c-49.3 0-89.3-44.6-93.9-50-8.3-9.6-10.1-23.2-4.7-34.7 3.3-6.9 33.8-67.9 87.9-75.2 54.1-7.3 99.6 43.5 104.6 49.3 8.3 9.6 10.1 23.2 4.7 34.6-3.3 6.9-33.8 67.9-87.9 75.2-3.6 0.5-7.2 0.8-10.7 0.8z m-28.5-76.5c10.3 7.6 22 13.5 30.6 12.3 8.6-1.2 18.4-9.9 26.3-20-10.3-7.6-22-13.5-30.6-12.3-8.6 1.2-18.3 10-26.3 20z" fill="#331008" /><path d="M468.4 288.9c85.7-31.4 401.4-61.6 364.7 297.8C805 949.6 247.3 976.4 127.4 789.4c-18.1-28.3-8.3-66 20.9-82.5 38-21.4 93.7-59.6 136.9-117.5 72.7-97.1 47.2-240.8 183.2-300.5z" fill="#FFD731" /><path d="M625 279.3c-31.8 3-59.1 9.4-76.6 15.8-136 59.7-110.5 203.4-183.1 300.5-43.3 57.9-98.6 96.6-136.9 117.5-90.8 49.5-109.8 82.5-109.8 82.5s6.9-66 36.1-82.5c38-21.4 93.7-59.6 136.9-117.5 72.6-97.1 47.1-240.8 183.1-300.5 30.1-11 88.7-21.9 150.3-15.8z" fill="#FFE964" /><path d="M824.6 586.7c-24.2 312.9-442.3 375.9-633.8 267.4 208.8 49.1 518-35.6 538.7-303.4C744.8 401 699 318.9 634.1 276.3c106.5 18.5 212.6 93.6 190.5 310.4z" fill="#EFAC25" /><path d="M413 935.4c-40.9 0-81.4-4.2-119.7-12.7-89-19.7-157.5-60.9-192.8-116-13.5-21-17.6-46-11.5-70.3 6-24.2 21.9-45.1 43.7-57.4 36.1-20.3 87.4-55.7 127-108.7 24-32 36.2-71.1 49.1-112.4 22.7-72.7 48.5-155.1 146.8-198.2 0.6-0.3 1.2-0.5 1.8-0.7 28.9-10.6 80.6-21.2 138.8-19.3 69.1 2.3 129.4 22 174.3 57 36.1 28 62.5 65.6 78.6 111.8 17.6 50.3 22.9 111.3 15.8 181.3-3.5 44.2-14.4 85.8-32.5 123.5-17 35.4-40.4 67.7-69.6 95.9-52.1 50.4-123 88-205 108.6-47 11.7-96.2 17.6-144.8 17.6z m67.3-616.8c-70.9 31.5-89.2 90.3-110.5 158.3-14 44.7-28.4 90.9-58.9 131.7-46.3 61.9-105.4 102.8-146.9 126.2-6.6 3.7-11.2 9.8-13 17.1-1.8 7.1-0.6 14.3 3.3 20.3 26.1 40.8 80.4 72.1 152.8 88.1 74.3 16.5 157.8 14.8 235.2-4.7 71.1-17.9 132-49.9 176.1-92.6 49.4-47.8 77.3-108 82.8-178.7 0-0.3 0-0.5 0.1-0.8 11.4-111.9-12.1-191.4-70-236.4-43.3-33.6-98.5-42.2-137.2-43.5-48.5-1.7-91.3 7-113.8 15z" fill="#331008" /></svg>