<?xml version="1.0" standalone="no"?><!DOCTYPE svg PUBLIC "-//W3C//DTD SVG 1.1//EN" "http://www.w3.org/Graphics/SVG/1.1/DTD/svg11.dtd"><svg class="icon" width="200px" height="200.00px" viewBox="0 0 1024 1024" version="1.1" xmlns="http://www.w3.org/2000/svg"><path d="M158.096 888.456a381.336 94.504 0 1 0 762.672 0 381.336 94.504 0 1 0-762.672 0Z" fill="#B8CBCD" /><path d="M763.432 558.056a24 24 0 0 1-21.984-33.6c23.328-53.496 44.488-140.52 18.496-166.52a24 24 0 1 1 33.936-33.944c59.264 59.264-1.344 203.44-8.448 219.68a24.016 24.016 0 0 1-22 14.384z" fill="#8D4520" /><path d="M881.64 592.528c-70.208 0-125.416-52.072-127.728-54.296a23.984 23.984 0 0 1 0-34.672c2.312-2.216 57.512-54.296 127.728-54.296 70.2 0 125.416 52.072 127.728 54.296a23.984 23.984 0 0 1 0 34.672c-2.312 2.216-57.52 54.296-127.728 54.296z m-71.464-71.632c17.552 11.176 43.416 23.632 71.472 23.632 27.912 0 53.816-12.48 71.424-23.664-17.552-11.168-43.392-23.6-71.424-23.6-28.064 0-53.912 12.456-71.472 23.632z" fill="#8D4520" /><path d="M696.408 736.384c15.584-50.032 55.984-83.512 87.576-115.12 53.6-53.592-2.928-87.6-14.8-92.968-5.368-11.864-43.864-72.88-97.472-19.288-31.592 31.6-65.064 71.984-115.112 87.576-67.088 0-134.736 0.616-184.824 50.72-75.648 75.64-75.648 198.272 0 273.912 75.632 75.64 198.272 75.64 273.912 0 50.112-50.096 50.72-117.736 50.72-184.832z" fill="#F6E89A" /><path d="M508.736 1001.944c-58.152 0-112.816-22.64-153.928-63.76-41.12-41.112-63.76-95.784-63.76-153.928 0-58.152 22.648-112.816 63.768-153.928 56.648-56.664 131.392-57.728 197.976-57.744 35.504-12.192 62.288-39.8 88.208-66.52 4.648-4.792 9.216-9.496 13.752-14.024 19.072-19.072 39.336-28.744 60.216-28.744 35.968 0 61.08 29.216 71.88 47.224 12.992 7.6 37.4 25.528 42.816 55.264 3.08 16.88 0.592 43.152-28.712 72.456a1234.64 1234.64 0 0 1-14.064 13.784c-26.704 25.928-54.296 52.704-66.488 88.184-0.024 66.584-1.088 141.336-57.744 197.984-41.112 41.112-95.776 63.752-153.92 63.752z m206.232-490.648c-9.576 0-19.576 7.984-26.28 14.688-4.36 4.36-8.76 8.896-13.232 13.504-29.472 30.376-62.864 64.8-111.704 80.008-2.312 0.72-4.72 1.088-7.136 1.088-61.048 0-124.176 0-167.856 43.688-32.056 32.048-49.704 74.664-49.704 119.992s17.656 87.936 49.704 119.984a168.576 168.576 0 0 0 119.984 49.696 168.6 168.6 0 0 0 119.992-49.696c43.68-43.672 43.68-106.808 43.68-167.864 0-2.424 0.368-4.832 1.088-7.136 15.2-48.8 49.608-82.2 79.968-111.664 4.624-4.496 9.168-8.904 13.544-13.28 8.064-8.064 17.28-19.792 15.44-29.912-2.048-11.216-16.752-21.328-23.152-24.224a24.024 24.024 0 0 1-11.976-11.976c-2.688-5.936-17.008-26.896-32.36-26.896z" fill="#8D4520" /><path d="M496.936 964.288c-52.856 0-102.552-20.584-139.92-57.96-37.376-37.368-57.96-87.064-57.96-139.92a196.568 196.568 0 0 1 57.968-139.928l33.936 33.944a148.896 148.896 0 0 0-43.904 105.984c0 40.032 15.592 77.672 43.904 105.984a148.896 148.896 0 0 0 105.984 43.904c40.04 0 77.672-15.592 105.992-43.896 38.504-38.496 38.504-92.16 38.504-148.968v-3.656l1.088-3.488c13.832-44.408 44.96-74.624 72.432-101.28 4.144-4.024 8.216-7.976 12.136-11.896l42.952-45.352 34.84 33.008-43.4 45.824c-4.528 4.552-8.784 8.672-13.104 12.864-23.672 22.976-48.12 46.704-58.944 77.824-0.024 60.152-1.104 127.616-52.56 179.064-37.392 37.36-87.088 57.944-139.944 57.944z" fill="#8D4520" /><path d="M568.384 173.616s20.456-4.232 47.528 22.832c40.6 40.592 15.896 178.952-102.688 297.544 0 0-66.944 61.528-134.6-6.128-54.312-54.312-47.968-92.528-43.36-105.496-12.952 4.616-51.168 10.96-105.488-43.352-67.656-67.656-6.128-134.592-6.128-134.592C342.24 85.832 480.6 61.136 521.192 101.736c27.072 27.056 24.128 47.592 24.128 47.592s1.352 8.352 8.44 15.456c7.112 7.096 14.624 8.832 14.624 8.832z" fill="#B2EDA6" /><path d="M447.4 543.608c-31.168 0-60.016-13.04-85.752-38.776-38.56-38.56-50.728-71.736-52.904-95.896-23.24-2.096-56.744-13.752-95.936-52.952-66.392-66.376-33.504-138.792-6.832-167.8a20.08 20.08 0 0 1 0.696-0.728C300.96 93.176 401.168 59.584 463.504 59.584c32.368 0 58.184 8.704 74.664 25.176 26.376 26.36 30.888 49.632 31.224 61.168 0.304 0.584 0.744 1.28 1.36 1.896 0.656 0.656 1.312 1.168 1.896 1.56 11.912 0.216 34.736 4.608 60.24 30.088 27.272 27.264 32.664 80.808 14.424 143.232-18.952 64.832-60.536 131.688-117.112 188.256-0.24 0.24-0.48 0.48-0.728 0.704-1.424 1.304-35.304 31.944-82.072 31.944zM335.256 358.376a23.992 23.992 0 0 1 22.616 32.04c-1.872 5.272-8.856 33.912 37.712 80.488 16.4 16.4 33.832 24.72 51.808 24.712 26.232 0 46.896-16.984 49.344-19.08 50.72-50.864 87.816-110.256 104.488-167.296 14.616-50 9.384-84.152-2.28-95.816-13.872-13.864-23.728-15.76-26.552-16.008-3.712 1.216-5.192 0.568-9.424-0.416-2.368-0.552-14.768-3.864-26.16-15.232-11.992-12.016-14.752-25.944-15.184-28.616-0.512-3.16-0.936-3.792-0.272-6.456-0.336-2.808-2.552-13.424-17.128-28-7.064-7.072-21.912-11.12-40.72-11.12-50.224 0-138.56 29.696-222.432 113.36-7.968 9.024-42.112 53.32 5.672 101.096 34.168 34.168 58.64 39.264 70.192 39.264 5.168 0 8.648-0.968 10.264-1.544 2.64-0.92 5.36-1.376 8.056-1.376z" fill="#3C663E" /><path d="M425.4 507.824c-25.664 0-54.08-9.56-81.424-36.912-40.216-40.216-49.264-66.888-32.264-95.144 0.416-0.696 0.848-1.352 1.184-2.032 4.44-12.496 18.032-18.712 30.528-14.28 12.488 4.44 18.896 18.464 14.456 30.952-1.504 4.216-3.544 7.616-5.04 10.104a57.536 57.536 0 0 0-1.32 2.264c0.608 2.384 4.304 12.104 26.392 34.2 43.48 43.472 83.808 12.776 92.4 5.24 47.224-47.368 81.752-102.64 97.264-155.712 13.408-45.888 8.504-77.808-1.736-88.04-5-4.992-8.512-7.968-10.8-9.704a24 24 0 0 1-23.304-33.52c3.44-7.928 10.76-13.664 19.576-15.344 14.24-2.712 28.264 4.432 48.464 24.624 26.296 26.288 31.352 75.664 13.872 135.456-17.792 60.856-56.816 123.608-109.888 176.68l-0.728 0.704c-15.552 14.272-44.256 30.456-77.632 30.464z" fill="#3C663E" /><path d="M287.016 638.96a23.976 23.976 0 0 1-20.328-11.208c-48-76.192 34.72-230.232 44.32-247.544a23.984 23.984 0 0 1 32.608-9.368 24.008 24.008 0 0 1 9.384 32.616c-30.88 55.856-70.592 159.192-45.696 198.712a24 24 0 0 1-20.288 36.792z" fill="#3C663E" /><path d="M217.568 471.488h-0.008a169.36 169.36 0 0 1-37.4-4.08c-74.784-16.976-121.608-76.616-123.568-79.144a24 24 0 0 1 6.224-35.008c2.272-1.432 56.392-34.936 118.832-34.936 12.24 0 24.168 1.296 35.44 3.856 75.544 17.152 119.904 81.024 121.752 83.736a23.976 23.976 0 0 1-7.472 34.112c-2.136 1.288-53.104 31.464-113.8 31.464zM115.848 380.496c16.88 14.728 42.92 32.832 74.936 40.104 8.44 1.92 17.448 2.888 26.784 2.888h0.008c23.584 0 45.92-6.184 62.328-12.36-16.024-15.52-41.352-34.856-73.432-42.136a112.432 112.432 0 0 0-24.816-2.664c-24.72-0.008-48.456 7.144-65.808 14.168z" fill="#3C663E" /></svg>